<?xml version="1.0" ?>
<svg xmlns="http://www.w3.org/2000/svg" width="1080" height="1920" viewBox="0 0 1080 1920">
  <g transform="translate(-1782.541,-4684.788)">
    <path d="M2862.54 4684.79v1920h-1080v-1920zm-225.72 302.58H2007.4c-9.37 0 -18.36 3.72 -24.99 10.35 -6.62 6.62 -10.34 15.61 -10.34 24.98 0 81.66 0 282.7 0 364.36 0 9.37 3.72 18.36 10.34 24.99 6.63 6.62 15.62 10.35 24.99 10.35 119.79 0 509.63 0 629.42 0 9.37 0 18.36 -3.73 24.99 -10.35 6.62 -6.63 10.35 -15.62 10.35 -24.99 0 -81.66 0 -282.7 0 -364.36 0 -9.37 -3.73 -18.36 -10.35 -24.98 -6.63 -6.63 -15.62 -10.35 -24.99 -10.35z" fill="#A2A2A2" stroke-linejoin="round" stroke-linecap="round" stroke-miterlimit="1.5"/>
  </g>
  <g transform="translate(-1782.541,-4684.788)">
    <path d="M2339 5422.4h4.09V6604.79H2339Zm4.09 -435.03H2339v-302.58h4.09z" fill="#8C8C8C" stroke-linejoin="round" stroke-linecap="round" stroke-miterlimit="1.5"/>
  </g>
  <g transform="translate(-1782.541,-4684.788)">
    <path d="M2749.62 4996.11C2749.62 4947.72 2710.4 4908.49 2662.01 4908.49C2501.32 4908.49 2161.24 4908.49 2000.55 4908.49C1952.16 4908.49 1912.93 4947.72 1912.93 4996.11C1912.93 5111.06 1912.93 5311.64 1912.93 5426.6C1912.93 5474.98 1952.16 5514.21 2000.55 5514.21C2161.24 5514.21 2501.32 5514.21 2662.01 5514.21C2710.4 5514.21 2749.62 5474.98 2749.62 5426.6C2749.62 5311.64 2749.62 5111.06 2749.62 4996.11ZM2636.82 4987.37C2646.19 4987.37 2655.18 4991.09 2661.81 4997.72C2668.43 5004.34 2672.16 5013.33 2672.16 5022.7C2672.16 5104.36 2672.16 5305.4 2672.16 5387.06C2672.16 5396.43 2668.43 5405.42 2661.81 5412.05C2655.18 5418.67 2646.19 5422.4 2636.82 5422.4C2517.03 5422.4 2127.19 5422.4 2007.4 5422.4C1998.03 5422.4 1989.04 5418.67 1982.41 5412.05C1975.79 5405.42 1972.07 5396.43 1972.07 5387.06C1972.07 5305.4 1972.07 5104.36 1972.07 5022.7C1972.07 5013.33 1975.79 5004.34 1982.41 4997.72C1989.04 4991.09 1998.03 4987.37 2007.4 4987.37L2636.82 4987.37Z" fill="#646464" stroke-linejoin="round" stroke-linecap="round" stroke-miterlimit="1.5"/>
  </g>
  <g transform="translate(-1782.541,-4684.788)">
    <path d="M2740.46 4985.46C2740.46 4937.07 2701.23 4897.85 2652.84 4897.85C2491.13 4897.85 2147.54 4897.85 1985.82 4897.85C1937.43 4897.85 1898.21 4937.07 1898.21 4985.46C1898.21 5099.92 1898.21 5299.19 1898.21 5413.65C1898.21 5462.04 1937.43 5501.27 1985.82 5501.27C2147.54 5501.27 2491.13 5501.27 2652.84 5501.27C2701.23 5501.27 2740.46 5462.04 2740.46 5413.65C2740.46 5299.19 2740.46 5099.92 2740.46 4985.46ZM2636.82 4987.37C2646.19 4987.37 2655.18 4991.09 2661.81 4997.72C2668.43 5004.34 2672.16 5013.33 2672.16 5022.7C2672.16 5104.36 2672.16 5305.4 2672.16 5387.06C2672.16 5396.43 2668.43 5405.42 2661.81 5412.05C2655.18 5418.67 2646.19 5422.4 2636.82 5422.4C2517.03 5422.4 2127.19 5422.4 2007.4 5422.4C1998.03 5422.4 1989.04 5418.67 1982.41 5412.05C1975.79 5405.42 1972.07 5396.43 1972.07 5387.06C1972.07 5305.4 1972.07 5104.36 1972.07 5022.7C1972.07 5013.33 1975.79 5004.34 1982.41 4997.72C1989.04 4991.09 1998.03 4987.37 2007.4 4987.37L2636.82 4987.37Z" fill="#8E8E8E" stroke-linejoin="round" stroke-linecap="round" stroke-miterlimit="1.5"/>
  </g>
  <g transform="translate(-0.00266757,9226.31)">
    <path d="M1586.85 0H1587.726V1000.82H1586.85V0Z" fill="#8C8C8C" stroke-linejoin="round" stroke-linecap="round" stroke-miterlimit="1.5"/>
  </g>
  <g transform="translate(560.5528,8363.873)">
    <path d="M1586.85 0H1587.726V1000.82H1586.85V0Z" fill="#8C8C8C" stroke-linejoin="round" stroke-linecap="round" stroke-miterlimit="1.5"/>
  </g>
  <g transform="translate(-1408.641,-332.495)">
    <path d="M1778.45 1135.02v-24.39" fill="none" stroke-linejoin="round" stroke-linecap="round" stroke-miterlimit="1.5" stroke-width="8.04" stroke="#4E4E4E"/>
  </g>
  <g transform="translate(-2530.914,915.9787)">
    <path d="M1497.06 93.194H2135.888V440.235H1497.06V93.194Z" fill="#795941" stroke-linejoin="round" stroke-linecap="round" stroke-miterlimit="1.5"/>
  </g>
  <g transform="translate(-1408.641,-330.0203)">
    <path d="M1625.43 1247.2c61.72 -111.42 21.95 -86.73 83.67 -115.53 61.73 -28.81 59.23 -35.02 69.35 -23.79" fill="none" stroke-linejoin="round" stroke-linecap="round" stroke-miterlimit="1.5" stroke-width="8.04" stroke="#4E4E4E"/>
  </g>
  <g transform="translate(1225.718,-311.096)"/>
  <g transform="translate(-299.13,2463.01)"/>
  <g>
    <path d="M1413.04 1458.34H1600.059V1498.47H1413.04V1458.34Z" fill="#7D5537" stroke-linejoin="round" stroke-linecap="round" stroke-miterlimit="1.5"/>
  </g>
  <g transform="translate(7516.74,10788.6)"/>
  <g>
    <path d="M1413.04 1458.34H1600.059V1498.47H1413.04V1458.34Z" fill="#987052" stroke-linejoin="round" stroke-linecap="round" stroke-miterlimit="1.5"/>
  </g>
  <g transform="translate(-1694.29,-1190.98)"/>
  <g>
    <path d="M1413.04 1458.34H1600.059V1498.47H1413.04V1458.34Z" fill="#A38873" stroke-linejoin="round" stroke-linecap="round" stroke-miterlimit="1.5"/>
  </g>
  <g transform="translate(-333.0328,135.0268)">
    <path d="M1461.13 1305.31h78.74v17.49c0 6.06 -17.64 10.98 -39.37 10.98 -21.73 0 -39.37 -4.92 -39.37 -10.98z" fill="#947C6B" stroke-linejoin="round" stroke-linecap="round" stroke-miterlimit="1.5"/>
  </g>
  <g transform="translate(-333.0328,130.0616)">
    <path d="M1539.872 1311.82A39.372 10.979 0 0 1 1461.128 1311.82A39.372 10.979 0 0 1 1539.872 1311.82Z" fill="#A1A1A1" stroke-linejoin="round" stroke-linecap="round" stroke-miterlimit="1.5"/>
  </g>
  <g transform="translate(1206.91,-330.1828)"/>
  <g/>
  <g transform="translate(571.848,1501.26)">
    <path d="M1413.04 1458.34H1600.059V1498.47H1413.04V1458.34Z" fill="#767676" stroke-linejoin="round" stroke-linecap="round" stroke-miterlimit="1.5"/>
  </g>
  <g transform="translate(2492.85,3042.33)"/>
  <g>
    <path d="M1413.04 1458.34H1600.059V1498.47H1413.04V1458.34Z" fill="#989292" stroke-linejoin="round" stroke-linecap="round" stroke-miterlimit="1.5"/>
  </g>
  <g transform="translate(287.411,297.224)"/>
  <g>
    <path d="M1413.04 1458.34H1600.059V1498.47H1413.04V1458.34Z" fill="#808080" stroke-linejoin="round" stroke-linecap="round" stroke-miterlimit="1.5"/>
  </g>
  <g transform="translate(1214.542,-362.2405)"/>
  <g transform="translate(-136.164,863.184)"/>
  <g>
    <path d="M1413.04 1458.34H1600.059V1498.47H1413.04V1458.34Z" fill="#767676" stroke-linejoin="round" stroke-linecap="round" stroke-miterlimit="1.5"/>
  </g>
  <g transform="translate(2074.91,1976.28)"/>
  <g>
    <path d="M1413.04 1458.34H1600.059V1498.47H1413.04V1458.34Z" fill="#989292" stroke-linejoin="round" stroke-linecap="round" stroke-miterlimit="1.5"/>
  </g>
  <g transform="translate(-323.753,462.289)"/>
  <g>
    <path d="M1413.04 1458.34H1600.059V1498.47H1413.04V1458.34Z" fill="#808080" stroke-linejoin="round" stroke-linecap="round" stroke-miterlimit="1.5"/>
  </g>
  <g transform="translate(5244.749,-3729.428)"/>
  <g>
    <path d="M1518.56 1272.6H1541.12V1288.955H1518.56V1272.6Z" fill="#A1A1A1" stroke-linejoin="round" stroke-linecap="round" stroke-miterlimit="1.5"/>
  </g>
  <g transform="translate(5869.263,-4379.209)"/>
  <g>
    <path d="M1566.45 1237.5H1588.095V1248.621H1566.45V1237.5Z" fill="#9B9B9B" stroke-linejoin="round" stroke-linecap="round" stroke-miterlimit="1.5"/>
  </g>
  <g transform="translate(418.732,-530.7274)"/>
  <g>
    <path d="M1413.04 1458.34H1600.059V1498.47H1413.04V1458.34Z" fill="#767676" stroke-linejoin="round" stroke-linecap="round" stroke-miterlimit="1.5"/>
  </g>
  <g transform="translate(-656.1838,2205.22)"/>
  <g>
    <path d="M1413.04 1458.34H1600.059V1498.47H1413.04V1458.34Z" fill="#989292" stroke-linejoin="round" stroke-linecap="round" stroke-miterlimit="1.5"/>
  </g>
  <g transform="translate(805.8746,-762.8457)"/>
  <g>
    <path d="M1413.04 1458.34H1600.059V1498.47H1413.04V1458.34Z" fill="#808080" stroke-linejoin="round" stroke-linecap="round" stroke-miterlimit="1.5"/>
  </g>
  <g transform="translate(1214.542,-325.0989)"/>
  <g/>
  <g transform="translate(611.123,1291.22)">
    <path d="M1413.04 1458.34H1600.059V1498.47H1413.04V1458.34Z" fill="#767676" stroke-linejoin="round" stroke-linecap="round" stroke-miterlimit="1.5"/>
  </g>
  <g transform="translate(2532.13,2832.29)"/>
  <g>
    <path d="M1413.04 1458.34H1600.059V1498.47H1413.04V1458.34Z" fill="#989292" stroke-linejoin="round" stroke-linecap="round" stroke-miterlimit="1.5"/>
  </g>
  <g transform="translate(326.685,367.59)"/>
  <g>
    <path d="M1413.04 1458.34H1600.059V1498.47H1413.04V1458.34Z" fill="#808080" stroke-linejoin="round" stroke-linecap="round" stroke-miterlimit="1.5"/>
  </g>
  <g transform="translate(-398.5124,188.9104)">
    <path d="M1461.13 1305.31h78.74v17.49c0 6.06 -17.64 10.98 -39.37 10.98 -21.73 0 -39.37 -4.92 -39.37 -10.98z" fill="#947C6B" stroke-linejoin="round" stroke-linecap="round" stroke-miterlimit="1.5"/>
  </g>
  <g transform="translate(-268.1302,389.4207)">
    <path d="M1461.13 1295.67h78.74v27.13c0 6.06 -17.64 10.98 -39.37 10.98 -21.73 0 -39.37 -4.92 -39.37 -10.98z" fill="#8D8D8D" stroke-linejoin="round" stroke-linecap="round" stroke-miterlimit="1.5"/>
  </g>
  <g transform="translate(-268.1302,378.7981)">
    <path d="M1539.872 1311.82A39.372 10.979 0 0 1 1461.128 1311.82A39.372 10.979 0 0 1 1539.872 1311.82Z" fill="#989898" stroke-linejoin="round" stroke-linecap="round" stroke-miterlimit="1.5"/>
  </g>
  <g transform="translate(-398.5124,183.9419)">
    <path d="M1539.872 1311.82A39.372 10.979 0 0 1 1461.128 1311.82A39.372 10.979 0 0 1 1539.872 1311.82Z" fill="#A1A1A1" stroke-linejoin="round" stroke-linecap="round" stroke-miterlimit="1.5"/>
  </g>
  <g transform="translate(-802.6627,-67.46483)">
    <path d="M1539.872 1311.82A39.372 10.979 0 0 1 1461.128 1311.82A39.372 10.979 0 0 1 1539.872 1311.82Z" fill="#A1A1A1" stroke-linejoin="round" stroke-linecap="round" stroke-miterlimit="1.5"/>
  </g>
  <g transform="translate(4708.195,-3552.101)"/>
  <g>
    <path d="M1427.93 1248.23h-22.56c77.99 16.1 118.57 29.85 113.19 40.72h22.56c7.19 -9.2 -28.64 -22.59 -113.19 -40.72z" fill="#A1A1A1" stroke-linejoin="round" stroke-linecap="round" stroke-miterlimit="1.5"/>
  </g>
  <g transform="translate(4714.907,-3315.799)"/>
  <g>
    <path d="M1518.56 1272.6H1541.12V1288.955H1518.56V1272.6Z" fill="#A1A1A1" stroke-linejoin="round" stroke-linecap="round" stroke-miterlimit="1.5"/>
  </g>
  <g transform="translate(5492.616,-4091.243)"/>
  <g>
    <path d="M1566.45 1237.5H1588.095V1248.621H1566.45V1237.5Z" fill="#9B9B9B" stroke-linejoin="round" stroke-linecap="round" stroke-miterlimit="1.5"/>
  </g>
  <g transform="translate(-1046.446,-366.3138)">
    <path d="M1461.13 1311.82h78.74v10.98c0 6.06 -17.64 10.98 -39.37 10.98 -21.73 0 -39.37 -4.92 -39.37 -10.98z" fill="#947C6B" stroke-linejoin="round" stroke-linecap="round" stroke-miterlimit="1.5"/>
  </g>
  <g transform="translate(-1046.446,-366.3138)">
    <path d="M1539.872 1311.82A39.372 10.979 0 0 1 1461.128 1311.82A39.372 10.979 0 0 1 1539.872 1311.82Z" fill="#A1A1A1" stroke-linejoin="round" stroke-linecap="round" stroke-miterlimit="1.5"/>
  </g>
  <g transform="translate(280.8311,944.4902)">
    <path d="M1461.13 1223.29h78.74v99.51c0 6.06 -17.64 10.98 -39.37 10.98 -21.73 0 -39.37 -4.92 -39.37 -10.98z" fill="#6C6C6C" stroke-linejoin="round" stroke-linecap="round" stroke-miterlimit="1.5"/>
  </g>
  <g transform="translate(280.8311,928.3186)">
    <path d="M1539.872 1311.82A39.372 10.979 0 0 1 1461.128 1311.82A39.372 10.979 0 0 1 1539.872 1311.82Z" fill="#696969" stroke-linejoin="round" stroke-linecap="round" stroke-miterlimit="1.5"/>
  </g>
  <g transform="translate(-758.3329,-253.7807)">
    <path d="M1461.13 1311.82h78.74v10.98c0 6.06 -17.64 10.98 -39.37 10.98 -21.73 0 -39.37 -4.92 -39.37 -10.98z" fill="#947C6B" stroke-linejoin="round" stroke-linecap="round" stroke-miterlimit="1.5"/>
  </g>
  <g transform="translate(-758.3329,-253.7807)">
    <path d="M1539.872 1311.82A39.372 10.979 0 0 1 1461.128 1311.82A39.372 10.979 0 0 1 1539.872 1311.82Z" fill="#A1A1A1" stroke-linejoin="round" stroke-linecap="round" stroke-miterlimit="1.5"/>
  </g>
  <g transform="translate(379.3002,926.486)">
    <path d="M1461.13 1223.29h78.74v99.51c0 6.06 -17.64 10.98 -39.37 10.98 -21.73 0 -39.37 -4.92 -39.37 -10.98z" fill="#6C6C6C" stroke-linejoin="round" stroke-linecap="round" stroke-miterlimit="1.5"/>
  </g>
  <g transform="translate(-505.246,-93.49475)">
    <path d="M1461.13 1311.82h78.74v10.98c0 6.06 -17.64 10.98 -39.37 10.98 -21.73 0 -39.37 -4.92 -39.37 -10.98z" fill="#947C6B" stroke-linejoin="round" stroke-linecap="round" stroke-miterlimit="1.5"/>
  </g>
  <g transform="translate(-505.246,-93.49475)">
    <path d="M1539.872 1311.82A39.372 10.979 0 0 1 1461.128 1311.82A39.372 10.979 0 0 1 1539.872 1311.82Z" fill="#A1A1A1" stroke-linejoin="round" stroke-linecap="round" stroke-miterlimit="1.5"/>
  </g>
  <g transform="translate(-1061.092,71.86641)">
    <path d="M1526.656 1391.26A6.646 3.691 0 0 1 1513.364 1391.26A6.646 3.691 0 0 1 1526.656 1391.26Z" fill="#7F7F7F" stroke-linejoin="round" stroke-linecap="round" stroke-miterlimit="1.5"/>
  </g>
  <g transform="translate(-1061.092,504.5323)">
    <path d="M1526.656 1391.26A6.646 3.691 0 0 1 1513.364 1391.26A6.646 3.691 0 0 1 1526.656 1391.26Z" fill="#7F7F7F" stroke-linejoin="round" stroke-linecap="round" stroke-miterlimit="1.5"/>
  </g>
  <g transform="translate(-1061.092,-362.2405)">
    <path d="M1513.37 1394.27H1526.661V1396.279H1513.37V1394.27Z" fill="#7F7F7F" stroke-linejoin="round" stroke-linecap="round" stroke-miterlimit="1.5"/>
  </g>
  <g transform="translate(665.4512,873.1113)"/>
  <g/>
  <g transform="translate(-236.42,1291.22)">
    <path d="M1413.04 1458.34H1600.059V1498.47H1413.04V1458.34Z" fill="#7D7D7D" stroke-linejoin="round" stroke-linecap="round" stroke-miterlimit="1.5"/>
  </g>
  <g transform="translate(2509.43,2832.29)"/>
  <g>
    <path d="M1413.04 1458.34H1600.059V1498.47H1413.04V1458.34Z" fill="#989292" stroke-linejoin="round" stroke-linecap="round" stroke-miterlimit="1.5"/>
  </g>
  <g transform="translate(-520.857,367.59)"/>
  <g>
    <path d="M1413.04 1458.34H1600.059V1498.47H1413.04V1458.34Z" fill="#868686" stroke-linejoin="round" stroke-linecap="round" stroke-miterlimit="1.5"/>
  </g>
  <g transform="translate(-0.00266757,-0.5400592)">
    <path d="M470.306 1729.74c0 -2.76 -2.241 -5 -5 -5h-31.12c-2.76 0 -5 2.24 -5 5v86.37c0 2.76 2.24 5 5 5h31.12c2.759 0 5 -2.24 5 -5z" fill="#898989" stroke-linejoin="round" stroke-linecap="round" stroke-miterlimit="1.5"/>
  </g>
  <g transform="translate(-0.00266757,0.00363078)">
    <path d="M365.085 1751.89H1080V1792.878H365.085V1751.89Z" fill="#858585" stroke-linejoin="round" stroke-linecap="round" stroke-miterlimit="1.5"/>
  </g>
  <g transform="translate(-0.00266757,-0.5400592)">
    <path d="M457.057 1736.21A7.5 7.5 0 0 1 442.057 1736.21A7.5 7.5 0 0 1 457.057 1736.21Z" fill="#727272" stroke-linejoin="round" stroke-linecap="round" stroke-miterlimit="1.5"/>
  </g>
  <g transform="translate(-0.00266757,-0.5400592)">
    <path d="M456.737 1808.9A7.5 7.5 0 0 1 441.737 1808.9A7.5 7.5 0 0 1 456.737 1808.9Z" fill="#727272" stroke-linejoin="round" stroke-linecap="round" stroke-miterlimit="1.5"/>
  </g>
  <g transform="translate(-0.00266757,0.00363078)">
    <path d="M989.886 1729.23c0 -2.76 -2.241 -5 -5 -5h-31.12c-2.759 0 -5 2.24 -5 5v86.37c0 2.76 2.241 5 5 5h31.12c2.759 0 5 -2.24 5 -5z" fill="#898989" stroke-linejoin="round" stroke-linecap="round" stroke-miterlimit="1.5"/>
  </g>
  <g transform="translate(-0.00266757,0.00363078)">
    <path d="M976.637 1735.7A7.5 7.5 0 0 1 961.637 1735.7A7.5 7.5 0 0 1 976.637 1735.7Z" fill="#727272" stroke-linejoin="round" stroke-linecap="round" stroke-miterlimit="1.5"/>
  </g>
  <g transform="translate(-0.00266757,0.00363078)">
    <path d="M976.318 1808.39A7.5 7.5 0 0 1 961.318 1808.39A7.5 7.5 0 0 1 976.318 1808.39Z" fill="#727272" stroke-linejoin="round" stroke-linecap="round" stroke-miterlimit="1.5"/>
  </g>
  <g transform="translate(-0.00266757,-0.5400592)">
    <path d="M429.175 1747.57H470.295V1797.906H429.175V1747.57Z" fill="#959595" stroke-linejoin="round" stroke-linecap="round" stroke-miterlimit="1.5"/>
  </g>
  <g transform="translate(-0.00266757,0.00363078)">
    <path d="M948.755 1747.06H989.875V1797.396H948.755V1747.06Z" fill="#959595" stroke-linejoin="round" stroke-linecap="round" stroke-miterlimit="1.5"/>
  </g>
  <g transform="translate(-0.00266757,0.00363078)">
    <path d="M-1920 303.816H-1819.189V344.804H-1920V303.816Z" fill="#858585" stroke-linejoin="round" stroke-linecap="round" stroke-miterlimit="1.5"/>
  </g>
  <g transform="translate(2.309028,0.00363078)">
    <path d="M-1837.91 279.187c0 -2.759 -2.24 -5 -5 -5h-31.12c-2.76 0 -5 2.241 -5 5v86.375c0 2.759 2.24 5 5 5h31.12c2.76 0 5 -2.241 5 -5z" fill="#898989" stroke-linejoin="round" stroke-linecap="round" stroke-miterlimit="1.5"/>
  </g>
  <g transform="translate(2.309028,0.00363078)">
    <path d="M-1851.16 285.656A7.5 7.5 0 0 1 -1866.16 285.656A7.5 7.5 0 0 1 -1851.16 285.656Z" fill="#727272" stroke-linejoin="round" stroke-linecap="round" stroke-miterlimit="1.5"/>
  </g>
  <g transform="translate(2.309028,0.00363078)">
    <path d="M-1851.48 358.349A7.5 7.5 0 0 1 -1866.48 358.349A7.5 7.5 0 0 1 -1851.48 358.349Z" fill="#727272" stroke-linejoin="round" stroke-linecap="round" stroke-miterlimit="1.5"/>
  </g>
  <g transform="translate(2.309028,0.00363078)">
    <path d="M-1879.04 297.022H-1837.92V347.358H-1879.04V297.022Z" fill="#959595" stroke-linejoin="round" stroke-linecap="round" stroke-miterlimit="1.5"/>
  </g>
  <g transform="translate(-1782.541,-2502.182)">
    <path d="M2083.96 4321.38c-0.16 0 -0.32 -0.07 -0.43 -0.18 -0.11 -0.11 -0.18 -0.27 -0.18 -0.43 0 0 0 0 0 0 0 -38.49 31.21 -69.7 69.7 -69.7 0.38 0 0.71 0 1 0 0.75 0 1.36 0.61 1.36 1.36 0 6.84 0 37.44 0 44.27 0 0.75 -0.61 1.36 -1.36 1.36 -0.24 0 -0.5 0 -0.79 0 -6.02 0 -11.79 2.39 -16.05 6.65 -4.26 4.25 -6.65 10.03 -6.65 16.05 0 0 0 0 0 0 0 0.34 -0.28 0.62 -0.62 0.62 -5.16 0 -40.88 0 -45.98 0z" fill="#7B7B7B" stroke-linejoin="round" stroke-linecap="round" stroke-miterlimit="1.5"/>
  </g>
  <g transform="translate(87.68614,86.25349)">
    <path d="M470.306 1729.74c0 -2.76 -2.241 -5 -5 -5h-31.12c-2.76 0 -5 2.24 -5 5v86.37c0 2.76 2.24 5 5 5h31.12c2.759 0 5 -2.24 5 -5z" fill="#898989" stroke-linejoin="round" stroke-linecap="round" stroke-miterlimit="1.5"/>
  </g>
  <g transform="translate(132.4643,86.79752)">
    <path d="M365.085 1751.89H1080V1792.878H365.085V1751.89Z" fill="#858585" stroke-linejoin="round" stroke-linecap="round" stroke-miterlimit="1.5"/>
  </g>
  <g transform="translate(87.68614,86.25349)">
    <path d="M457.057 1736.21A7.5 7.5 0 0 1 442.057 1736.21A7.5 7.5 0 0 1 457.057 1736.21Z" fill="#727272" stroke-linejoin="round" stroke-linecap="round" stroke-miterlimit="1.5"/>
  </g>
  <g transform="translate(87.68614,86.25349)">
    <path d="M456.737 1808.9A7.5 7.5 0 0 1 441.737 1808.9A7.5 7.5 0 0 1 456.737 1808.9Z" fill="#727272" stroke-linejoin="round" stroke-linecap="round" stroke-miterlimit="1.5"/>
  </g>
  <g transform="translate(87.68614,86.79752)">
    <path d="M989.886 1729.23c0 -2.76 -2.241 -5 -5 -5h-31.12c-2.759 0 -5 2.24 -5 5v86.37c0 2.76 2.241 5 5 5h31.12c2.759 0 5 -2.24 5 -5z" fill="#898989" stroke-linejoin="round" stroke-linecap="round" stroke-miterlimit="1.5"/>
  </g>
  <g transform="translate(87.68614,86.79752)">
    <path d="M976.637 1735.7A7.5 7.5 0 0 1 961.637 1735.7A7.5 7.5 0 0 1 976.637 1735.7Z" fill="#727272" stroke-linejoin="round" stroke-linecap="round" stroke-miterlimit="1.5"/>
  </g>
  <g transform="translate(87.68614,86.79752)">
    <path d="M976.318 1808.39A7.5 7.5 0 0 1 961.318 1808.39A7.5 7.5 0 0 1 976.318 1808.39Z" fill="#727272" stroke-linejoin="round" stroke-linecap="round" stroke-miterlimit="1.5"/>
  </g>
  <g transform="translate(87.68614,86.25349)">
    <path d="M429.175 1747.57H470.295V1797.906H429.175V1747.57Z" fill="#959595" stroke-linejoin="round" stroke-linecap="round" stroke-miterlimit="1.5"/>
  </g>
  <g transform="translate(87.68614,86.79752)">
    <path d="M948.755 1747.06H989.875V1797.396H948.755V1747.06Z" fill="#959595" stroke-linejoin="round" stroke-linecap="round" stroke-miterlimit="1.5"/>
  </g>
  <g transform="translate(87.68614,1653.035)">
    <path d="M-1920 303.816H-1819.189V344.804H-1920V303.816Z" fill="#858585" stroke-linejoin="round" stroke-linecap="round" stroke-miterlimit="1.5"/>
  </g>
  <g transform="translate(-1694.852,-2415.388)">
    <path d="M2083.96 4321.38c-0.16 0 -0.32 -0.07 -0.43 -0.18 -0.11 -0.11 -0.18 -0.27 -0.18 -0.43 0 0 0 0 0 0 0 -38.49 31.21 -69.7 69.7 -69.7 0.38 0 0.71 0 1 0 0.75 0 1.36 0.61 1.36 1.36 0 6.84 0 37.44 0 44.27 0 0.75 -0.61 1.36 -1.36 1.36 -0.24 0 -0.5 0 -0.79 0 -6.02 0 -11.79 2.39 -16.05 6.65 -4.26 4.25 -6.65 10.03 -6.65 16.05 0 0 0 0 0 0 0 0.34 -0.28 0.62 -0.62 0.62 -5.16 0 -40.88 0 -45.98 0z" fill="#7B7B7B" stroke-linejoin="round" stroke-linecap="round" stroke-miterlimit="1.5"/>
  </g>
  <g transform="translate(-2530.914,1550.664)">
    <path d="M1497.06 93.194H2135.888V440.235H1497.06V93.194Z" fill="#000000" stroke-linejoin="round" stroke-linecap="round" stroke-miterlimit="1.5" stroke-width="0.75" stroke="#4B4B4B"/>
  </g>
  <g transform="translate(-2530.914,1544.701)">
    <path d="M1497.06 93.194H2135.888V440.235H1497.06V93.194Z" fill="#6C5341" stroke-linejoin="round" stroke-linecap="round" stroke-miterlimit="1.5"/>
  </g>
  <g transform="translate(-1782.541,-4684.788)">
    <path d="M2007.4 5422.4h-9.18c-19.62 0 -35.52 -15.91 -35.52 -35.52 0 -83.33 0 -290.57 0 -373.9 0 -19.61 15.9 -35.52 35.52 -35.52 121.14 0 517.27 0 638.42 0 19.62 0 35.52 15.91 35.52 35.52v360.89 -351.17c0 -9.37 -3.73 -18.36 -10.35 -24.98 -6.63 -6.63 -15.62 -10.35 -24.99 -10.35H2007.4c-9.37 0 -18.36 3.72 -24.99 10.35 -6.62 6.62 -10.34 15.61 -10.34 24.98 0 81.66 0 282.7 0 364.36 0 9.37 3.72 18.36 10.34 24.99 6.63 6.62 15.62 10.35 24.99 10.35z" fill="#626262" stroke-linejoin="round" stroke-linecap="round" stroke-miterlimit="1.5"/>
  </g>
  <path d="M520.55452 826.06635l-3.76975 4.72877 -0.45337 6.02822 3.01965 5.23705 5.44854 2.62675 1.53319 0.11254 5.77552 -1.78043 3.77249 -4.72596 0.45061 -6.03103 -3.01965 -5.2369 -5.44854 -2.62408 -1.53043 -0.11536zm0 67.71805l-3.76975 4.72596 -0.45337 6.02836 3.01965 5.2369 5.44854 2.62676 1.53319 0.11535 5.77552 -1.78324 3.77249 -4.72596 0.45061 -6.03103 -3.01965 -5.23705 -5.44854 -2.62393 -1.53043 -0.11536zm0 67.71538l-3.76975 4.72596 -0.45337 6.02822 3.01965 5.23704 5.44854 2.62675 1.53319 0.11536 5.77552 -1.78324 3.77249 -4.72582 0.45061 -6.02836 -3.01965 -5.2369 -5.44854 -2.62675 -1.53043 -0.11536zm0 67.71542l-3.76975 4.7259 -0.45337 6.0311 3.01965 5.2369 5.44854 2.624 1.53319 0.1154 5.77552 -1.7833 3.77249 -4.7259 0.45061 -6.0282 -3.01965 -5.2371 -5.44854 -2.6267 -1.53043 -0.1154zm0 67.7152l-3.76975 4.726 -0.45337 6.031 3.01965 5.237 5.44854 2.624 1.53319 0.1153 5.77552 -1.7805 3.77249 -4.7287 0.45061 -6.0283 -3.01965 -5.2369 -5.44854 -2.624 -1.53043 -0.1153zm0 67.7154l-3.76975 4.7286 -0.45337 6.0284 3.01965 5.237 5.44854 2.624 1.53319 0.1153 5.77552 -1.7804 3.77249 -4.7287 0.45061 -6.0283 -3.01965 -5.2369 -5.44854 -2.6241 -1.53043 -0.1154zm0 67.7154l-3.76975 4.7286 -0.45337 6.0283 3.01965 5.237 5.44854 2.6267 1.53319 0.1125 5.77552 -1.7804 3.77249 -4.7259 0.45061 -6.0311 -3.01965 -5.237 -5.44854 -2.624 -1.53043 -0.1153zm0 67.718l-3.76975 4.726 -0.45337 6.0282 3.01965 5.237 5.44854 2.6268 1.53319 0.1153 5.77552 -1.7832 3.77249 -4.726 0.45061 -6.0282 -3.01965 -5.237 -5.44854 -2.6268 -1.53043 -0.1153zm0 67.7154l-3.76975 4.7258 -0.45337 6.0284 3.01965 5.237 5.44854 2.6266 1.53319 0.1154 5.77552 -1.7833 3.77249 -4.7259 0.45061 -6.0282 -3.01965 -5.2371 -5.44854 -2.6267 -1.53043 -0.1154zm0 67.7152l-3.76975 4.726 -0.45337 6.031 3.01965 5.2371 5.44854 2.6239 1.53319 0.1154 5.77552 -1.7831 3.77249 -4.726 0.45061 -6.0284 -3.01965 -5.2369 -5.44854 -2.6267 -1.53043 -0.1154zm0 67.7154l-3.76975 4.726 -0.45337 6.031 3.01965 5.2369 5.44854 2.6241 1.53319 0.1153 5.77552 -1.7804 3.77249 -4.7288 0.45061 -6.0282 -3.01965 -5.237 -5.44854 -2.624 -1.53043 -0.1153zm0 67.7154l-3.76975 4.7286 -0.45337 6.0282 3.01965 5.2371 5.44854 2.6239 1.53319 0.1154 5.77552 -1.7806 3.77249 -4.7286 0.45061 -6.0282 -3.01965 -5.2371 -5.44854 -2.6239 -1.53043 -0.1154zm0 67.7152l-3.76975 4.7288 -0.45337 6.0282 3.01965 5.2371 5.44854 2.6267 1.53319 0.1126 5.77552 -1.7805 3.77249 -4.7259 0.45061 -6.0311 -3.01965 -5.2369 -5.44854 -2.6241 -1.53043 -0.1153zm0 67.7181l-3.76975 4.7259 -0.45337 6.0284 3.01965 5.2369 5.44854 2.6267 1.53319 0.1154 5.77552 -1.7832 3.77249 -4.726 0.45061 -6.0284 -3.01965 -5.2369 -5.44854 -2.6267 -1.53043 -0.1154zm0 67.7154l-3.76975 4.7259 -0.45337 6.0282 3.01965 5.2371 5.44854 2.6267 1.53319 0.1154 5.77552 -1.7833 3.77249 -4.7258 0.45061 -6.0283 -3.01965 -5.2369 -5.44854 -2.6268 -1.53043 -0.1153zm0 67.7153l-3.76975 4.7258 -0.45337 6.0312 3.01965 5.2369 5.44854 2.624 1.53319 0.1153 5.77552 -1.7832 3.77249 -4.726 0.45061 -6.0282 -3.01965 -5.237 -5.44854 -2.6268 -1.53043 -0.1154z" fill="#8D8D8D" stroke-miterlimit="1.5"/>
  <path d="M520.55611 25.17308l-3.77146 4.72737 -0.45324 6.02664 3.02157 5.23829 5.44431 2.62601 1.53549 0.11537 5.77667 -1.78272 3.76872 -4.72463 0.45324 -6.02939 -3.01882 -5.23554 -5.44704 -2.62601 -1.53277 -0.11537zm0 67.696709l-3.77146 4.72737 -0.45324 6.026641 3.02157 5.23829 5.44431 2.62601 1.53549 0.11533 5.77667 -1.78271 3.76872 -4.72463 0.45324 -6.029391 -3.01882 -5.23555 -5.44704 -2.626 -1.53277 -0.11533zm0 67.696721l-3.77146 4.72462 -0.45324 6.02939 3.02157 5.23555 5.44431 2.626 1.53549 0.11532 5.77667 -1.77998 3.76872 -4.72737 0.45324 -6.02664 -3.01882 -5.23554 -5.44704 -2.62602 -1.53277 -0.11814z" fill="#8D8D8D" stroke-miterlimit="1.5"/>
  <path d="M260.52148 243.01758l-4.03906 3.66797 -1.83008 5.13672 0.81055 5.39453 3.25977 4.375 4.9375 2.3164 2.15234 0.20899 5.29102 -1.32617 4.03906 -3.66797 1.83008 -5.13867 -0.81055 -5.39258 -3.25977 -4.375 -4.9375 -2.31641 -2.15234 -0.20898zm89.67579 0l-4.03907 3.66797 -1.83008 5.13672 0.81055 5.39453 3.25977 4.375 4.93945 2.3164 2.15039 0.20899 5.29102 -1.32617 4.03906 -3.66797 1.83203 -5.13867 -0.81055 -5.39258 -3.25976 -4.375 -4.93946 -2.31641 -2.15234 -0.20898zm89.67773 0l-4.03906 3.66797 -1.83203 5.13672 0.81054 5.39453 3.26172 4.375 4.9375 2.3164 2.15235 0.20899 5.29101 -1.32617 4.03906 -3.66797 1.83008 -5.13867 -0.81055 -5.39258 -3.25976 -4.375 -4.9375 -2.31641 -2.15234 -0.20898zm89.67578 0l-4.03906 3.66797 -1.83008 5.13672 0.81055 5.39453 3.25976 4.375 4.9375 2.3164 2.15235 0.20899 5.29101 -1.32617 4.03907 -3.66797 1.83007 -5.13867 -0.81054 -5.39258 -3.25977 -4.375 -4.9375 -2.31641 -2.15234 -0.20898zm89.67578 0l-4.03906 3.66797 -1.83008 5.13672 0.81055 5.39453 3.25976 4.375 4.9375 2.3164 2.15235 0.20899 5.29101 -1.32617 4.03907 -3.66797 1.83203 -5.13867 -0.81055 -5.39258 -3.26172 -4.375 -4.9375 -2.31641 -2.15234 -0.20898zm89.67578 0l-4.03711 3.66797 -1.83203 5.13672 0.81055 5.39453 3.25977 4.375 4.93945 2.3164 2.15234 0.20899 5.29102 -1.32617 4.03711 -3.66797 1.83203 -5.13867 -0.81055 -5.39258 -3.25976 -4.375 -4.93946 -2.31641 -2.15039 -0.20898zm89.67774 0l-4.03906 3.66797 -1.83008 5.13672 0.81054 5.39453 3.25977 4.375 4.9375 2.3164 2.15234 0.20899 5.29102 -1.32617 4.03906 -3.66797 1.83008 -5.13867 -0.81055 -5.39258 -3.25976 -4.375 -4.9375 -2.31641 -2.15235 -0.20898zm85.56445 17.4082l-4.03906 3.66602 -1.83008 5.13867 0.81055 5.39453 3.25976 4.37305 4.9375 2.31836 2.15235 0.20703 5.29101 -1.32617 4.03906 -3.66602 1.83008 -5.13867 -0.81054 -5.39453 -3.25977 -4.37305 -4.9375 -2.31836 -2.15234 -0.20898zm-707.70703 3.92774l-4.03906 3.66601 -1.83008 5.13867 0.81055 5.39453 3.25976 4.37305 4.93945 2.31836 2.1504 0.20898 5.29101 -1.32812 4.03906 -3.66602 1.83203 -5.13867 -0.81054 -5.39453 -3.25977 -4.37305 -4.93945 -2.31835 -2.15234 -0.20704zm743.0293 81.39453l-4.03907 3.66601 -1.83203 5.13867 0.81055 5.39454 3.25977 4.37304 4.93945 2.31836 2.15234 0.20899 5.29102 -1.32813 4.03711 -3.66601 1.83203 -5.13868 -0.81055 -5.39453 -3.25976 -4.37304 -4.93946 -2.31836 -2.15039 -0.20703zm-773.87696 -0.0469l-4.03906 3.66602 -1.83203 5.13867 0.81055 5.39453 3.25976 4.37305 4.93946 2.31836 2.15234 0.20898 5.29102 -1.32617 4.03906 -3.66797 1.83008 -5.13867 -0.81055 -5.39453 -3.25977 -4.37305 -4.93945 -2.31641 -2.15039 -0.20898zm0 89.67578l-4.03906 3.66797 -1.83203 5.13867 0.81055 5.39258 3.25976 4.375 4.93946 2.31641 2.15234 0.20898 5.29102 -1.32617 4.03906 -3.66601 1.83008 -5.13868 -0.81055 -5.39453 -3.25977 -4.375 -4.93945 -2.3164 -2.15039 -0.20899zm773.87696 10.04493l-4.03907 3.66601 -1.83203 5.13867 0.81055 5.39453 3.25977 4.37305 4.93945 2.31836 2.15234 0.20898 5.29102 -1.32812 4.03711 -3.66602 1.83203 -5.13867 -0.81055 -5.39453 -3.25976 -4.37305 -4.93946 -2.31836 -2.15039 -0.20703zm-773.87696 79.63281l-4.03906 3.66601 -1.83203 5.13868 0.81055 5.39453 3.25976 4.37304 4.93946 2.31836 2.15234 0.20703 5.29102 -1.32617 4.03906 -3.66601 1.83008 -5.13868 -0.81055 -5.39453 -3.25977 -4.37304 -4.93945 -2.31836 -2.15039 -0.20899zm773.87696 12.04297l-4.03907 3.66601 -1.83203 5.13867 0.81055 5.39454 3.25977 4.375 4.93945 2.3164 2.15234 0.20899 5.29102 -1.32618 4.03711 -3.66797 1.83203 -5.13867 -0.81055 -5.39257 -3.25976 -4.375 -4.93946 -2.31641 -2.15039 -0.20899zm-773.87696 77.63281l-4.03906 3.66601 -1.83203 5.13868 0.81055 5.39453 3.25976 4.37304 4.93946 2.31836 2.15234 0.20899 5.29102 -1.32813 4.03906 -3.66601 1.83008 -5.13867 -0.81055 -5.39454 -3.25977 -4.37304 -4.93945 -2.31836 -2.15039 -0.20703zm773.87696 18.04297l-4.03907 3.66797 -1.83203 5.13867 0.81055 5.39453 3.25977 4.37305 4.93945 2.3164 2.15234 0.20899 5.29102 -1.32617 4.03711 -3.66602 1.83203 -5.13867 -0.81055 -5.39453 -3.25976 -4.37305 -4.93946 -2.31836 -2.15039 -0.20898zm-769.6543 71.24218l-4.03906 3.66602 -1.83203 5.13867 0.81054 5.39453 3.25977 4.37305 4.93945 2.31836 2.15235 0.20898 5.29101 -1.32617 4.03711 -3.66797 1.83203 -5.13867 -0.81055 -5.39453 -3.25976 -4.37305 -4.93945 -2.3164 -2.15039 -0.20899zm757.29688 20.44336l-4.03907 3.66602 -1.83008 5.13867 0.81055 5.39453 3.25977 4.37305 4.9375 2.31836 2.15234 0.20703 5.29102 -1.32617 4.03906 -3.66602 1.83203 -5.13867 -0.81055 -5.39453 -3.26172 -4.37305 -4.9375 -2.31836 -2.15234 -0.20898zm-699.18555 42.88477l-4.03906 3.66602 -1.83204 5.13867 0.81055 5.39453 3.26172 4.37305 4.9375 2.31836 2.15234 0.20703 5.29102 -1.32618 4.03906 -3.66601 1.83008 -5.13867 -0.81055 -5.39453 -3.25976 -4.37305 -4.9375 -2.31836 -2.15235 -0.20899zm89.39062 2.95313l-4.03906 3.66601 -1.83008 5.13867 0.81055 5.39453 3.25976 4.37305 4.9375 2.31836 2.15235 0.20898 5.29101 -1.32812 4.03907 -3.66602 1.83007 -5.13867 -0.81054 -5.39453 -3.25977 -4.37305 -4.9375 -2.31836 -2.15234 -0.20703zm89.67578 0l-4.03711 3.66601 -1.83203 5.13867 0.81055 5.39453 3.25977 4.37305 4.93945 2.31836 2.15039 0.20898 5.29102 -1.32812 4.03906 -3.66602 1.83203 -5.13867 -0.81055 -5.39453 -3.25976 -4.37305 -4.93946 -2.31836 -2.15234 -0.20703zm89.67774 0l-4.03906 3.66601 -1.83203 5.13867 0.81054 5.39453 3.26172 4.37305 4.9375 2.31836 2.15234 0.20898 5.29102 -1.32812 4.03906 -3.66602 1.83008 -5.13867 -0.81055 -5.39453 -3.25976 -4.37305 -4.9375 -2.31836 -2.15235 -0.20703zm89.67578 0l-4.03906 3.66601 -1.83008 5.13867 0.81055 5.39453 3.25976 4.37305 4.9375 2.31836 2.15235 0.20898 5.29101 -1.32812 4.03906 -3.66602 1.83008 -5.13867 -0.81054 -5.39453 -3.25977 -4.37305 -4.9375 -2.31836 -2.15234 -0.20703zm89.67578 0l-4.03906 3.66601 -1.83008 5.13867 0.81055 5.39453 3.25976 4.37305 4.9375 2.31836 2.15235 0.20898 5.29101 -1.32812 4.03906 -3.66602 1.83204 -5.13867 -0.81055 -5.39453 -3.26172 -4.37305 -4.9375 -2.31836 -2.15234 -0.20703zm89.67774 0l-4.03907 3.66601 -1.83203 5.13867 0.81055 5.39453 3.25976 4.37305 4.93946 2.31836 2.15234 0.20898 5.29102 -1.32812 4.03711 -3.66602 1.83203 -5.13867 -0.81055 -5.39453 -3.25977 -4.37305 -4.93945 -2.31836 -2.15039 -0.20703zm89.67578 0l-4.03907 3.66601 -1.83007 5.13867 0.81054 5.39453 3.25977 4.37305 4.9375 2.31836 2.15234 0.20898 5.29102 -1.32812 4.03906 -3.66602 1.83008 -5.13867 -0.81055 -5.39453 -3.25976 -4.37305 -4.9375 -2.31836 -2.15235 -0.20703z" fill="#6B6B6B" stroke-miterlimit="1.5"/>
  <path d="M59.085537 961.23688l-3.688656 4.1018 -0.95412 5.43483 2.072586 5.11071 4.4693 3.2367 3.403332 0.59576 5.302443 -1.52249 3.688656 -4.1018 0.951838 -5.43255 -2.072587 -5.11299 -4.467016 -3.23442 -3.403334 -0.59575zm65.991783 0l-3.68866 4.1018 -0.95411 5.43483 2.07487 5.11071 4.46701 3.2367 3.40333 0.59576 5.30245 -1.52249 3.68865 -4.1018 0.95413 -5.43255 -2.07487 -5.11299 -4.46702 -3.23442 -3.40334 -0.59575zm65.99179 0l-3.68865 4.1018 -0.95413 5.43483 2.07487 5.11071 4.46702 3.2367 3.40333 0.59576 5.30245 -1.52249 3.68865 -4.1018 0.95413 -5.43255 -2.07487 -5.11299 -4.46702 -3.23442 -3.40334 -0.59575zm65.99179 0l-3.68865 4.1018 -0.95185 5.43483 2.07259 5.11071 4.4693 3.2367 3.40106 0.59576 5.30244 -1.52249 3.69093 -4.1018 0.95184 -5.43255 -2.07259 -5.11299 -4.46929 -3.23442 -3.40333 -0.59575zm65.99178 0l-3.68865 4.1018 -0.95184 5.43483 2.07259 5.11071 4.4693 3.2367 3.40104 0.59576 5.30474 -1.52249 3.68865 -4.1018 0.95184 -5.43255 -2.07259 -5.11299 -4.4693 -3.23442 -3.40334 -0.59575zm65.99407 0l-3.69093 4.1018 -0.95184 5.43483 2.07259 5.11071 4.46929 3.2367 3.40334 0.59576 5.30244 -1.52249 3.68865 -4.1018 0.95185 -5.43255 -2.07259 -5.11299 -4.4693 -3.23442 -3.40105 -0.59575zm65.99179 0l-3.68865 4.1018 -0.95412 5.43483 2.07258 5.11071 4.4693 3.2367 3.40334 0.59576 5.30244 -1.52249 3.68866 -4.1018 0.95183 -5.43255 -2.07258 -5.11299 -4.46702 -3.23442 -3.40333 -0.59575z" fill="#8D8D8D" stroke-miterlimit="1.5"/>
  <path d="M606.70709 101.89623l-3.68765 4.06681 -0.98624 5.39832 2.01309 5.1072 4.40533 3.27466 3.53419 0.64545 5.27872 -1.50756 3.68766 -4.06454 0.98397 -5.40059 -2.01083 -5.1072 -4.40532 -3.27466 -3.5342 -0.64545zm65.99415 0l-3.68766 4.06681 -0.98623 5.39832 2.01309 5.1072 4.40533 3.27466 3.53419 0.64545 5.27871 -1.50756 3.68766 -4.06454 0.98624 -5.40059 -2.01309 -5.1072 -4.40533 -3.27466 -3.53419 -0.64545zm65.99415 0l-3.68766 4.06681 -0.98623 5.39832 2.01308 5.1072 4.40533 3.27466 3.5342 0.64545 5.27872 -1.50756 3.68765 -4.06454 0.98624 -5.40059 -2.0131 -5.1072 -4.40532 -3.27466 -3.53419 -0.64545zm65.99414 0l-3.68766 4.06681 -0.98622 5.39832 2.01308 5.1072 4.40533 3.27466 3.53419 0.64545 5.27872 -1.50756 3.68765 -4.06454 0.98624 -5.40059 -2.01309 -5.1072 -4.40533 -3.27466 -3.53419 -0.64545zm65.99415 0l-3.68766 4.06681 -0.98623 5.39832 2.01309 5.1072 4.40533 3.27466 3.53419 0.64545 5.27872 -1.50756 3.68766 -4.06454 0.98623 -5.40059 -2.0131 -5.1072 -4.40532 -3.27466 -3.53419 -0.64545zm65.99414 0l-3.68766 4.06681 -0.98622 5.39832 2.01309 5.1072 4.40533 3.27466 3.53418 0.64545 5.27872 -1.50756 3.68766 -4.06454 0.98623 -5.40059 -2.01309 -5.1072 -4.40533 -3.27466 -3.53419 -0.64545zm65.99418 0l-3.68768 4.06681 -0.98624 5.39832 2.01312 5.1072 4.4053 3.27466 3.5342 0.64545 5.2787 -1.50756 3.6877 -4.06454 0.9862 -5.40059 -2.0131 -5.1072 -4.4053 -3.27466 -3.5342 -0.64545zm65.9963 0l-3.6898 4.06681 -0.984 5.39832 2.0109 5.1072 4.4075 3.27466 3.532 0.64545 5.2786 -1.50756 3.6877 -4.06454 0.9862 -5.40059 -2.0131 -5.1072 -4.4053 -3.27466 -3.5341 -0.64545z" fill="#8D8D8D" stroke-miterlimit="1.5"/>
  <path d="M0 1046.03H1080V1056.865H0V1046.03Z" fill="#000000" stroke-linejoin="round" stroke-linecap="round" stroke-miterlimit="1.5"/>
  <path d="M292.3055 1439.5561l-56.2399 -25.48 225.88957 -196.4698 241.24953 -33.99z" fill="#000000" stroke-linejoin="round" stroke-linecap="round" stroke-miterlimit="1.5"/>
</svg>
