<?xml version="1.0" ?>
<svg xmlns="http://www.w3.org/2000/svg" width="1080" height="1920" viewBox="0 0 1080 1920">
  <g transform="translate(-1170.11,-2500.27)"/>
  <g transform="translate(51.6021,2277.87)"/>
  <g/>
  <g transform="translate(-15.9157,-650.621)">
    <path d="M2250.11 3164.61L2250.11 3236.85L1878.78 3236.85L1878.78 3164.61L2250.11 3164.61M1878.78 3236.85L1170.11 3236.85L1170.11 3164.61L1878.78 3164.61L1878.78 3236.85M2032.19 3164.61L1878.78 3164.61L1878.78 3127.55C1878.78 3147.81 1913.55 3164.24 1955.49 3164.24C1997.42 3164.24 2032.19 3147.81 2032.19 3127.55L2032.19 3164.61M2250.11 3164.61L2032.19 3164.61L2032.19 3127.55C2032.19 3147.81 2066.95 3164.24 2108.89 3164.24C2150.83 3164.24 2185.59 3147.81 2185.59 3127.55C2185.6 3145.81 2213.83 3160.96 2250.11 3163.77L2250.11 3164.61M1265.16 3164.61L1170.11 3164.61L1170.11 3163.16C1176 3163.87 1182.15 3164.24 1188.46 3164.24C1230.4 3164.24 1265.16 3147.81 1265.16 3127.55L1265.16 3164.61M1725.38 3164.61L1265.16 3164.61L1265.16 3127.55C1265.16 3147.81 1299.93 3164.24 1341.87 3164.24C1383.8 3164.24 1418.57 3147.81 1418.57 3127.55C1418.57 3147.81 1453.33 3164.24 1495.27 3164.24C1537.21 3164.24 1571.97 3147.81 1571.97 3127.55C1571.97 3147.81 1606.74 3164.24 1648.68 3164.24C1690.62 3164.24 1725.38 3147.81 1725.38 3127.55C1725.38 3127.55 1725.38 3127.55 1725.38 3127.55L1725.38 3164.61M1725.38 3164.61L1878.78 3164.61L1878.78 3127.55C1878.78 3147.81 1844.02 3164.24 1802.08 3164.24C1760.14 3164.24 1725.38 3147.81 1725.38 3127.55C1725.38 3127.55 1725.38 3127.55 1725.38 3127.55L1725.38 3164.61" fill="#358DA0"/>
  </g>
  <g transform="translate(249.81,-239.469)"/>
  <g>
    <path d="M900 2112.08L900 3585.93L200 3585.93L200 2112.08L900 2112.08M300 2112.08L200 2112.08L200 2067.99C200 2092.1 222.662 2111.64 250 2111.64C277.338 2111.64 300 2092.1 300 2067.99L300 2112.08M500 2112.08L300 2112.08L300 2067.99C300 2092.1 322.662 2111.64 350 2111.64C377.338 2111.64 400 2092.1 400 2067.99C400 2092.1 422.662 2111.64 450 2111.64C477.338 2111.64 500 2092.1 500 2067.99L500 2112.08M800 2112.08L500 2112.08L500 2067.99C500 2092.1 522.662 2111.64 550 2111.64C577.338 2111.64 600 2092.1 600 2067.99C600 2092.1 622.662 2111.64 650 2111.64C677.338 2111.64 700 2092.1 700 2067.99C700 2092.1 722.662 2111.64 750 2111.64C777.338 2111.64 800 2092.1 800 2067.99C800 2067.99 800 2067.99 800 2067.99L800 2112.08M800 2112.08L900 2112.08L900 2067.99C900 2092.1 877.338 2111.64 850 2111.64C822.662 2111.64 800 2092.1 800 2067.99C800 2067.99 800 2067.99 800 2067.99L800 2112.08" fill="#3AA2B8"/>
  </g>
</svg>
