<?xml version="1.0" ?>
<svg xmlns="http://www.w3.org/2000/svg" width="88" height="88" viewBox="0 0 88 88">
  <g transform="translate(-1302,-2076)"/>
  <g transform="translate(593.06,2018.23)">
    <path d="M752.88 58.525C776.698 58.525 796.036 77.863 796.036 101.681C796.036 125.5 776.698 144.838 752.88 144.838C729.061 144.838 709.723 125.5 709.723 101.681C709.723 77.863 729.061 58.525 752.88 58.525ZM759.049 97.276C759.049 96.456 758.384 95.791 757.565 95.791C755.191 95.791 750.568 95.791 748.195 95.791C747.375 95.791 746.711 96.456 746.711 97.276C746.711 102.139 746.711 117.56 746.711 122.424C746.711 123.243 747.375 123.908 748.195 123.908C750.568 123.908 755.191 123.908 757.565 123.908C758.384 123.908 759.049 123.243 759.049 122.424C759.049 117.56 759.049 102.139 759.049 97.276ZM752.88 79.455C756.285 79.455 759.049 82.219 759.049 85.624C759.049 89.029 756.285 91.793 752.88 91.793C749.475 91.793 746.711 89.029 746.711 85.624C746.711 82.219 749.475 79.455 752.88 79.455Z" fill="#FFFFFF" stroke-linejoin="round" stroke-miterlimit="1.41421"/>
  </g>
</svg>
