<?xml version="1.0" ?>
<svg xmlns="http://www.w3.org/2000/svg" width="311" height="237" viewBox="0 0 311 237">
  <g transform="translate(-3794.65,-3531.74)"/>
  <g transform="translate(1242.7,963.483)"/>
  <g transform="translate(1212.3,184.236)">
    <path d="M2074.85 3939.82L2018.61 3914.34L2244.5 3717.87L2485.75 3683.88L2074.85 3939.82Z" fill="#000000" stroke-linejoin="round" stroke-miterlimit="1.41421"/>
  </g>
  <g transform="translate(3208.73,1637.07)"/>
  <g/>
  <g transform="translate(-299.13,2463.01)"/>
  <g>
    <path d="M1413.04 1458.34H1600.059V1498.47H1413.04V1458.34Z" fill="#7D5537" stroke-linejoin="round" stroke-miterlimit="1.41421"/>
  </g>
  <g transform="translate(7516.74,10788.6)"/>
  <g>
    <path d="M1413.04 1458.34H1600.059V1498.47H1413.04V1458.34Z" fill="#987052" stroke-linejoin="round" stroke-miterlimit="1.41421"/>
  </g>
  <g transform="translate(-1694.29,-1190.98)"/>
  <g>
    <path d="M1413.04 1458.34H1600.059V1498.47H1413.04V1458.34Z" fill="#A38873" stroke-linejoin="round" stroke-miterlimit="1.41421"/>
  </g>
  <g transform="translate(2174.27,1933.14)"/>
  <g>
    <path d="M1461.13 1305.31L1539.87 1305.31L1539.87 1322.8C1539.87 1328.86 1522.23 1333.78 1500.5 1333.78C1478.77 1333.78 1461.13 1328.86 1461.13 1322.8L1461.13 1305.31Z" fill="#947C6B" stroke-linejoin="round" stroke-miterlimit="1.41421"/>
  </g>
  <g transform="translate(2174.27,1929.85)"/>
  <g>
    <path d="M1539.872 1311.82A39.372 10.979 0 0 1 1461.128 1311.82A39.372 10.979 0 0 1 1539.872 1311.82Z" fill="#A1A1A1" stroke-linejoin="round" stroke-miterlimit="1.41421"/>
  </g>
  <g transform="translate(3196.25,1624.41)"/>
  <g/>
  <g transform="translate(571.848,1501.26)">
    <path d="M1413.04 1458.34H1600.059V1498.47H1413.04V1458.34Z" fill="#767676" stroke-linejoin="round" stroke-miterlimit="1.41421"/>
  </g>
  <g transform="translate(2492.85,3042.33)"/>
  <g>
    <path d="M1413.04 1458.34H1600.059V1498.47H1413.04V1458.34Z" fill="#989292" stroke-linejoin="round" stroke-miterlimit="1.41421"/>
  </g>
  <g transform="translate(287.411,297.224)"/>
  <g>
    <path d="M1413.04 1458.34H1600.059V1498.47H1413.04V1458.34Z" fill="#808080" stroke-linejoin="round" stroke-miterlimit="1.41421"/>
  </g>
  <g transform="translate(3201.31,1603.13)"/>
  <g/>
  <g transform="translate(-136.164,863.184)"/>
  <g>
    <path d="M1413.04 1458.34H1600.059V1498.47H1413.04V1458.34Z" fill="#767676" stroke-linejoin="round" stroke-miterlimit="1.41421"/>
  </g>
  <g transform="translate(2074.91,1976.28)"/>
  <g>
    <path d="M1413.04 1458.34H1600.059V1498.47H1413.04V1458.34Z" fill="#989292" stroke-linejoin="round" stroke-miterlimit="1.41421"/>
  </g>
  <g transform="translate(-323.753,462.289)"/>
  <g>
    <path d="M1413.04 1458.34H1600.059V1498.47H1413.04V1458.34Z" fill="#808080" stroke-linejoin="round" stroke-miterlimit="1.41421"/>
  </g>
  <g transform="translate(5875.95,-631.506)"/>
  <g>
    <path d="M1518.56 1272.6H1541.12V1288.955H1518.56V1272.6Z" fill="#A1A1A1" stroke-linejoin="round" stroke-miterlimit="1.41421"/>
  </g>
  <g transform="translate(6290.42,-1062.73)"/>
  <g>
    <path d="M1566.45 1237.5H1588.095V1248.621H1566.45V1237.5Z" fill="#9B9B9B" stroke-linejoin="round" stroke-miterlimit="1.41421"/>
  </g>
  <g transform="translate(2673.17,1491.32)"/>
  <g>
    <path d="M1413.04 1458.34H1600.059V1498.47H1413.04V1458.34Z" fill="#767676" stroke-linejoin="round" stroke-miterlimit="1.41421"/>
  </g>
  <g transform="translate(1959.81,3307.02)"/>
  <g>
    <path d="M1413.04 1458.34H1600.059V1498.47H1413.04V1458.34Z" fill="#989292" stroke-linejoin="round" stroke-miterlimit="1.41421"/>
  </g>
  <g transform="translate(2930.1,1337.27)"/>
  <g>
    <path d="M1413.04 1458.34H1600.059V1498.47H1413.04V1458.34Z" fill="#808080" stroke-linejoin="round" stroke-miterlimit="1.41421"/>
  </g>
  <g transform="translate(3201.31,1627.78)"/>
  <g/>
  <g transform="translate(611.123,1291.22)"/>
  <g>
    <path d="M1413.04 1458.34H1600.059V1498.47H1413.04V1458.34Z" fill="#767676" stroke-linejoin="round" stroke-miterlimit="1.41421"/>
  </g>
  <g transform="translate(2532.13,2832.29)"/>
  <g>
    <path d="M1413.04 1458.34H1600.059V1498.47H1413.04V1458.34Z" fill="#989292" stroke-linejoin="round" stroke-miterlimit="1.41421"/>
  </g>
  <g transform="translate(326.685,367.59)"/>
  <g>
    <path d="M1413.04 1458.34H1600.059V1498.47H1413.04V1458.34Z" fill="#808080" stroke-linejoin="round" stroke-miterlimit="1.41421"/>
  </g>
  <g transform="translate(2130.81,1968.9)"/>
  <g>
    <path d="M1461.13 1305.31L1539.87 1305.31L1539.87 1322.8C1539.87 1328.86 1522.23 1333.78 1500.5 1333.78C1478.77 1333.78 1461.13 1328.86 1461.13 1322.8L1461.13 1305.31Z" fill="#947C6B" stroke-linejoin="round" stroke-miterlimit="1.41421"/>
  </g>
  <g transform="translate(2217.34,2101.97)"/>
  <g>
    <path d="M1461.13 1295.67L1539.87 1295.67L1539.87 1322.8C1539.87 1328.86 1522.23 1333.78 1500.5 1333.78C1478.77 1333.78 1461.13 1328.86 1461.13 1322.8L1461.13 1295.67Z" fill="#8D8D8D" stroke-linejoin="round" stroke-miterlimit="1.41421"/>
  </g>
  <g transform="translate(2217.34,2094.92)"/>
  <g>
    <path d="M1539.872 1311.82A39.372 10.979 0 0 1 1461.128 1311.82A39.372 10.979 0 0 1 1539.872 1311.82Z" fill="#989898" stroke-linejoin="round" stroke-miterlimit="1.41421"/>
  </g>
  <g transform="translate(2130.81,1965.61)"/>
  <g>
    <path d="M1539.872 1311.82A39.372 10.979 0 0 1 1461.128 1311.82A39.372 10.979 0 0 1 1539.872 1311.82Z" fill="#A1A1A1" stroke-linejoin="round" stroke-miterlimit="1.41421"/>
  </g>
  <g transform="translate(1862.6,1798.76)">
    <path d="M1539.872 1311.82A39.372 10.979 0 0 1 1461.128 1311.82A39.372 10.979 0 0 1 1539.872 1311.82Z" fill="#A1A1A1" stroke-linejoin="round" stroke-miterlimit="1.41421"/>
  </g>
  <g transform="translate(5519.87,-513.818)"/>
  <g>
    <path d="M1427.93 1248.23L1405.37 1248.23C1483.36 1264.33 1523.94 1278.08 1518.56 1288.95L1541.12 1288.95C1548.31 1279.75 1512.48 1266.36 1427.93 1248.23Z" fill="#A1A1A1" stroke-linejoin="round" stroke-miterlimit="1.41421"/>
  </g>
  <g transform="translate(5524.32,-356.995)"/>
  <g>
    <path d="M1518.56 1272.6H1541.12V1288.955H1518.56V1272.6Z" fill="#A1A1A1" stroke-linejoin="round" stroke-miterlimit="1.41421"/>
  </g>
  <g transform="translate(6040.46,-871.623)"/>
  <g>
    <path d="M1566.45 1237.5H1588.095V1248.621H1566.45V1237.5Z" fill="#9B9B9B" stroke-linejoin="round" stroke-miterlimit="1.41421"/>
  </g>
  <g transform="translate(1700.81,1600.43)">
    <path d="M1461.13 1311.82L1539.87 1311.82L1539.87 1322.8C1539.87 1328.86 1522.23 1333.78 1500.5 1333.78C1478.77 1333.78 1461.13 1328.86 1461.13 1322.8L1461.13 1311.82Z" fill="#947C6B" stroke-linejoin="round" stroke-miterlimit="1.41421"/>
  </g>
  <g transform="translate(1700.81,1600.43)">
    <path d="M1539.872 1311.82A39.372 10.979 0 0 1 1461.128 1311.82A39.372 10.979 0 0 1 1539.872 1311.82Z" fill="#A1A1A1" stroke-linejoin="round" stroke-miterlimit="1.41421"/>
  </g>
  <g transform="translate(2581.66,2470.34)"/>
  <g>
    <path d="M1461.13 1223.29L1539.87 1223.29L1539.87 1322.8C1539.87 1328.86 1522.23 1333.78 1500.5 1333.78C1478.77 1333.78 1461.13 1328.86 1461.13 1322.8L1461.13 1223.29Z" fill="#6C6C6C" stroke-linejoin="round" stroke-miterlimit="1.41421"/>
  </g>
  <g transform="translate(2581.66,2459.61)"/>
  <g>
    <path d="M1539.872 1311.82A39.372 10.979 0 0 1 1461.128 1311.82A39.372 10.979 0 0 1 1539.872 1311.82Z" fill="#696969" stroke-linejoin="round" stroke-miterlimit="1.41421"/>
  </g>
  <g transform="translate(1892.02,1675.11)">
    <path d="M1461.13 1311.82L1539.87 1311.82L1539.87 1322.8C1539.87 1328.86 1522.23 1333.78 1500.5 1333.78C1478.77 1333.78 1461.13 1328.86 1461.13 1322.8L1461.13 1311.82Z" fill="#947C6B" stroke-linejoin="round" stroke-miterlimit="1.41421"/>
  </g>
  <g transform="translate(1892.02,1675.11)">
    <path d="M1539.872 1311.82A39.372 10.979 0 0 1 1461.128 1311.82A39.372 10.979 0 0 1 1539.872 1311.82Z" fill="#A1A1A1" stroke-linejoin="round" stroke-miterlimit="1.41421"/>
  </g>
  <g transform="translate(2647.01,2458.4)">
    <path d="M1461.13 1223.29L1539.87 1223.29L1539.87 1322.8C1539.87 1328.86 1522.23 1333.78 1500.5 1333.78C1478.77 1333.78 1461.13 1328.86 1461.13 1322.8L1461.13 1223.29Z" fill="#6C6C6C" stroke-linejoin="round" stroke-miterlimit="1.41421"/>
  </g>
  <g transform="translate(2059.98,1781.48)"/>
  <g>
    <path d="M1461.13 1311.82L1539.87 1311.82L1539.87 1322.8C1539.87 1328.86 1522.23 1333.78 1500.5 1333.78C1478.77 1333.78 1461.13 1328.86 1461.13 1322.8L1461.13 1311.82Z" fill="#947C6B" stroke-linejoin="round" stroke-miterlimit="1.41421"/>
  </g>
  <g transform="translate(2059.98,1781.48)"/>
  <g>
    <path d="M1539.872 1311.82A39.372 10.979 0 0 1 1461.128 1311.82A39.372 10.979 0 0 1 1539.872 1311.82Z" fill="#A1A1A1" stroke-linejoin="round" stroke-miterlimit="1.41421"/>
  </g>
  <g transform="translate(1691.09,1891.23)">
    <path d="M1526.656 1391.26A6.646 3.691 0 0 1 1513.364 1391.26A6.646 3.691 0 0 1 1526.656 1391.26Z" fill="#7F7F7F" stroke-linejoin="round" stroke-miterlimit="1.41421"/>
  </g>
  <g transform="translate(1691.09,2178.36)">
    <path d="M1526.656 1391.26A6.646 3.691 0 0 1 1513.364 1391.26A6.646 3.691 0 0 1 1526.656 1391.26Z" fill="#7F7F7F" stroke-linejoin="round" stroke-miterlimit="1.41421"/>
  </g>
  <g transform="translate(1691.09,1603.13)">
    <path d="M1513.37 1394.27H1526.661V1396.279H1513.37V1394.27Z" fill="#7F7F7F" stroke-linejoin="round" stroke-miterlimit="1.41421"/>
  </g>
  <g transform="translate(2836.91,2422.97)"/>
  <g/>
  <g transform="translate(-236.42,1291.22)"/>
  <g>
    <path d="M1413.04 1458.34H1600.059V1498.47H1413.04V1458.34Z" fill="#7D7D7D" stroke-linejoin="round" stroke-miterlimit="1.41421"/>
  </g>
  <g transform="translate(2509.43,2832.29)"/>
  <g>
    <path d="M1413.04 1458.34H1600.059V1498.47H1413.04V1458.34Z" fill="#989292" stroke-linejoin="round" stroke-miterlimit="1.41421"/>
  </g>
  <g transform="translate(-520.857,367.59)"/>
  <g>
    <path d="M1413.04 1458.34H1600.059V1498.47H1413.04V1458.34Z" fill="#868686" stroke-linejoin="round" stroke-miterlimit="1.41421"/>
  </g>
</svg>
