<?xml version="1.0" ?>
<svg xmlns="http://www.w3.org/2000/svg" width="1080" height="1920" viewBox="0 0 1080 1920">
  <g/>
  <g>
    <path d="M 0 0 L 1080 0 L 1080 1920 L 0 1920 Z" fill="#92b7d2" stroke-width="1"/>
  </g>
  <g/>
  <g transform="translate(0,40)">
    <path d="M 414.618 398.823 L 422.892 398.823 L 422.892 486.682 L 414.618 486.682 Z" fill="#686868" stroke-width="1"/>
    <path d="M 473.577 468.446 L 698.505 468.446 L 698.505 540.092 L 473.577 540.092 Z" fill="#cfcfcf" stroke-width="1"/>
    <path d="M 343.675 495.145 C 342.896 492.652 343.351 489.93 344.899 487.83 C 346.448 485.723 348.907 484.477 351.52 484.477 C 376.706 484.471 437.881 484.471 466.283 484.471 C 474.532 484.471 481.221 491.16 481.221 499.409 L 481.221 504.459 C 481.221 514.797 489.601 523.177 499.94 523.177 L 741.648 523.177 C 744.296 523.177 746.812 524.332 748.537 526.348 C 750.262 528.357 751.019 531.022 750.615 533.64 C 745.707 565.333 731.339 658.121 731.339 658.121 L 426.968 658.121 C 391.479 617.844 358.864 541.724 343.675 495.145 Z" fill="#8f8f8f" stroke-width="1"/>
    <path d="M 487.39 488.114 C 487.39 484.198 484.211 481.021 480.298 481.021 L 344.623 481.021 C 340.71 481.021 337.537 484.198 337.537 488.114 C 337.537 492.025 340.71 495.202 344.623 495.202 L 480.298 495.202 C 484.211 495.202 487.39 492.025 487.39 488.114 Z M 546.285 571.295 C 546.285 577.58 541.116 582.749 534.831 582.749 C 528.546 582.749 523.377 577.58 523.377 571.295 C 523.377 565.01 528.546 559.841 534.831 559.841 C 541.116 559.841 546.285 565.01 546.285 571.295 Z M 608.955 571.295 C 608.955 577.58 603.786 582.749 597.501 582.749 C 591.216 582.749 586.047 577.58 586.047 571.295 C 586.047 565.01 591.216 559.841 597.501 559.841 C 603.786 559.841 608.955 565.01 608.955 571.295 Z M 668.545 571.295 C 668.545 577.58 663.376 582.749 657.091 582.749 C 650.806 582.749 645.637 577.58 645.637 571.295 C 645.637 565.01 650.806 559.841 657.091 559.841 C 663.376 559.841 668.545 565.01 668.545 571.295 Z" fill="#525252" stroke-width="1"/>
    <path d="M 531.962 495.275 C 531.962 498.85 529.018 501.793 525.443 501.793 C 521.868 501.793 518.925 498.85 518.925 495.275 C 518.925 491.7 521.868 488.756 525.443 488.756 C 529.018 488.756 531.962 491.7 531.962 495.275 Z M 554.742 495.275 C 554.742 498.85 551.798 501.793 548.223 501.793 C 544.648 501.793 541.705 498.85 541.705 495.275 C 541.705 491.7 544.648 488.756 548.223 488.756 C 551.798 488.756 554.742 491.7 554.742 495.275 Z M 577.502 495.275 C 577.502 498.85 574.558 501.793 570.983 501.793 C 567.408 501.793 564.465 498.85 564.465 495.275 C 564.465 491.7 567.408 488.756 570.983 488.756 C 574.558 488.756 577.502 491.7 577.502 495.275 Z M 600.272 495.275 C 600.272 498.85 597.328 501.793 593.753 501.793 C 590.178 501.793 587.235 498.85 587.235 495.275 C 587.235 491.7 590.178 488.756 593.753 488.756 C 597.328 488.756 600.272 491.7 600.272 495.275 Z M 623.052 495.275 C 623.052 498.85 620.108 501.793 616.533 501.793 C 612.958 501.793 610.015 498.85 610.015 495.275 C 610.015 491.7 612.958 488.756 616.533 488.756 C 620.108 488.756 623.052 491.7 623.052 495.275 Z M 645.822 495.275 C 645.822 498.85 642.878 501.793 639.303 501.793 C 635.728 501.793 632.785 498.85 632.785 495.275 C 632.785 491.7 635.728 488.756 639.303 488.756 C 642.878 488.756 645.822 491.7 645.822 495.275 Z M 668.592 495.275 C 668.592 498.85 665.648 501.793 662.073 501.793 C 658.498 501.793 655.555 498.85 655.555 495.275 C 655.555 491.7 658.498 488.756 662.073 488.756 C 665.648 488.756 668.592 491.7 668.592 495.275 Z" fill="#ababab" stroke-width="1"/>
    <path d="M 420.871 524.343 C 425.101 524.343 428.534 527.775 428.534 532.005 C 428.534 536.234 425.101 539.667 420.871 539.667 C 416.642 539.667 413.209 536.234 413.209 532.005 C 413.209 527.775 416.642 524.343 420.871 524.343 Z M 420.871 528.174 C 418.757 528.174 417.04 529.89 417.04 532.005 C 417.04 534.119 418.757 535.836 420.871 535.836 C 422.986 535.836 424.703 534.119 424.703 532.005 C 424.703 529.89 422.986 528.174 420.871 528.174 Z" fill="#525252" stroke-width="1"/>
    <path d="M 417.04 537.539 L 424.703 537.539 L 424.703 569.377 L 417.04 569.377 Z" fill="#525252" stroke-width="1"/>
    <path d="M 399.799 550.224 C 399.799 561.862 409.233 571.295 420.87 571.295 C 432.508 571.295 441.941 561.862 441.941 550.224 L 436.252 550.224 C 436.252 558.719 429.365 565.606 420.87 565.606 C 412.375 565.606 405.489 558.719 405.489 550.224 L 399.799 550.224 Z" fill="#525252" stroke-width="1"/>
    <path d="M 402.673 544.336 L 407.972 554.056 L 397.375 554.056 L 402.673 544.336 Z M 439.134 544.336 L 444.433 554.056 L 433.836 554.056 L 439.134 544.336 Z" fill="#525252" stroke-width="1"/>
    <path d="M 708.807 461.374 C 708.807 457.458 705.633 454.281 701.714 454.281 L 467.013 454.281 C 463.103 454.281 459.929 457.458 459.929 461.374 C 459.929 465.285 463.103 468.462 467.013 468.462 L 701.714 468.462 C 705.633 468.462 708.807 465.285 708.807 461.374 Z" fill="#adadad" stroke-width="1"/>
    <path d="M 418.752 391.007 C 417.105 391.007 415.499 391.528 414.167 392.497 C 412.834 393.465 411.842 394.831 411.333 396.397 C 410.824 397.964 410.824 399.652 411.333 401.218 C 411.842 402.785 412.834 404.151 414.167 405.119 C 415.499 406.087 417.105 406.609 418.752 406.609 C 420.399 406.609 422.005 406.087 423.337 405.119 C 424.67 404.151 425.662 402.785 426.171 401.218 C 426.68 399.652 426.68 397.964 426.171 396.397 C 425.662 394.831 424.67 393.465 423.337 392.497 C 422.005 391.528 420.399 391.007 418.752 391.007 Z" fill="#5f5f5f" stroke-width="1"/>
    <path d="M 443.222 319.68 C 419.533 313.829 394.488 317.631 373.6 330.246 C 347.418 346.059 330.804 373.851 329.272 404.4 C 330.804 373.851 347.418 346.059 373.6 330.246 C 394.488 317.631 419.533 313.829 443.222 319.68 Z" fill="#ffffff" stroke-width="8.94296448" stroke="#ffffff"/>
    <path d="M 437.93 341.117 C 419.925 336.67 400.89 339.559 385.015 349.147 C 365.116 361.165 352.489 382.287 351.325 405.505 C 352.489 382.287 365.116 361.165 385.015 349.147 C 400.89 339.559 419.925 336.67 437.93 341.117 Z" fill="#ffffff" stroke-width="8.94135564" stroke="#ffffff"/>
    <path d="M 432.617 362.631 C 420.318 359.593 407.315 361.567 396.471 368.116 C 382.878 376.326 374.252 390.755 373.457 406.615 C 374.252 390.755 382.878 376.326 396.471 368.116 C 407.315 361.567 420.318 359.593 432.617 362.631 Z" fill="#ffffff" stroke-width="8.94148035" stroke="#ffffff"/>
  </g>
  <g>
    <path d="M 597.476 404.385 C 597.756 403.392 597.555 402.325 596.932 401.502 C 596.309 400.679 595.336 400.196 594.304 400.196 L 554.113 400.196 C 552.639 400.196 551.344 401.176 550.943 402.595 L 532.721 467.148 L 579.759 467.148 L 597.476 404.385 Z" fill="#4c4c4c" stroke-width="0.671654999"/>
  </g>
  <g>
    <path d="M 597.476 404.385 C 597.756 403.392 597.555 402.325 596.932 401.502 C 596.309 400.679 595.336 400.196 594.304 400.196 L 554.113 400.196 C 552.639 400.196 551.344 401.176 550.943 402.595 L 532.721 467.148 L 579.759 467.148 L 597.476 404.385 Z" fill="#000" stroke-width="0.671654999"/>
  </g>
  <g/>
  <g>
    <path d="M 537.525 409.685 L 605.335 409.685 L 605.335 419.473 L 537.525 419.473 Z" fill="#910000" stroke-width="0.671654999"/>
  </g>
  <g>
    <path d="M 662.354 404.385 C 662.634 403.392 662.433 402.325 661.81 401.502 C 661.187 400.679 660.214 400.196 659.182 400.196 L 618.991 400.196 C 617.517 400.196 616.222 401.176 615.821 402.595 L 597.599 467.148 L 644.637 467.148 L 662.354 404.385 Z" fill="#4c4c4c" stroke-width="0.671654999"/>
  </g>
  <g>
    <path d="M 662.354 404.385 C 662.634 403.392 662.433 402.325 661.81 401.502 C 661.187 400.679 660.214 400.196 659.182 400.196 L 618.991 400.196 C 617.517 400.196 616.222 401.176 615.821 402.595 L 597.599 467.148 L 644.637 467.148 L 662.354 404.385 Z" fill="#000" stroke-width="0.671654999"/>
  </g>
  <g/>
  <g>
    <path d="M 602.403 409.685 L 670.213 409.685 L 670.213 419.473 L 602.403 419.473 Z" fill="#910000" stroke-width="0.671654999"/>
  </g>
</svg>
