<?xml version="1.0" encoding="UTF-8" standalone="no"?>
<!DOCTYPE svg PUBLIC "-//W3C//DTD SVG 1.1//EN" "http://www.w3.org/Graphics/SVG/1.1/DTD/svg11.dtd">
<svg width="100%" height="100%" viewBox="0 0 512 512" version="1.1" xmlns="http://www.w3.org/2000/svg" xmlns:xlink="http://www.w3.org/1999/xlink" xml:space="preserve" xmlns:serif="http://www.serif.com/" style="fill-rule:evenodd;clip-rule:evenodd;stroke-linejoin:round;stroke-miterlimit:2;">
    <g transform="matrix(1,0,0,1,-4002.31,-591.744)">
        <g id="Logo" transform="matrix(0.266667,0,0,0.474074,4002.31,591.744)">
            <rect x="0" y="0" width="1920" height="1080" style="fill:none;"/>
            <clipPath id="_clip1">
                <rect x="0" y="0" width="1920" height="1080"/>
            </clipPath>
            <g clip-path="url(#_clip1)">
                <g transform="matrix(3.60533,0,0,2.02802,-14.5403,-8.1871)">
                    <rect x="4.033" y="4.037" width="532.544" height="532.54" style="fill:rgb(146,183,210);fill-rule:nonzero;"/>
                </g>
                <g transform="matrix(3.60533,0,0,2.02802,-14.5403,-8.1871)">
                    <path d="M102.198,205.63L154.55,205.63L154.55,210.971L102.198,210.971L102.198,205.63ZM124.349,236.528L132.623,236.528L132.623,252.238L124.349,252.238L124.349,236.528Z" style="fill:rgb(104,104,104);fill-rule:nonzero;"/>
                </g>
                <g transform="matrix(3.60533,0,0,2.02802,-14.5403,-8.1871)">
                    <rect x="196.868" y="234.485" width="224.928" height="71.646" style="fill:rgb(207,207,207);fill-rule:nonzero;"/>
                </g>
                <g transform="matrix(3.60533,0,0,2.02802,-14.5403,-8.1871)">
                    <path d="M66.967,261.174C66.187,258.681 66.642,255.959 68.191,253.859C69.739,251.752 72.199,250.506 74.812,250.506C99.997,250.5 161.173,250.5 189.575,250.5C197.824,250.5 204.513,257.189 204.513,265.438L204.513,270.488C204.513,280.826 212.893,289.206 223.231,289.206L464.94,289.206C467.587,289.206 470.103,290.362 471.828,292.377C473.553,294.386 474.31,297.051 473.906,299.669C468.999,331.362 454.63,424.15 454.63,424.15L150.26,424.15C114.77,383.873 82.155,307.753 66.967,261.174Z" style="fill:rgb(143,143,143);fill-rule:nonzero;"/>
                </g>
                <g transform="matrix(3.60533,0,0,2.02802,-14.5403,-8.1871)">
                    <path d="M210.671,254.143C210.671,250.227 207.492,247.05 203.579,247.05L67.905,247.05C63.992,247.05 60.819,250.227 60.819,254.143C60.819,258.054 63.992,261.231 67.905,261.231L203.579,261.231C207.492,261.231 210.671,258.054 210.671,254.143ZM269.577,337.324C269.577,343.609 264.408,348.778 258.123,348.778C251.838,348.778 246.668,343.609 246.668,337.324C246.668,331.039 251.838,325.87 258.123,325.87C264.408,325.87 269.577,331.039 269.577,337.324ZM332.237,337.324C332.237,343.609 327.068,348.778 320.783,348.778C314.498,348.778 309.328,343.609 309.328,337.324C309.328,331.039 314.498,325.87 320.783,325.87C327.068,325.87 332.237,331.039 332.237,337.324ZM391.837,337.324C391.837,343.609 386.668,348.778 380.383,348.778C374.098,348.778 368.928,343.609 368.928,337.324C368.928,331.039 374.098,325.87 380.383,325.87C386.668,325.87 391.837,331.039 391.837,337.324Z" style="fill:rgb(82,82,82);fill-rule:nonzero;"/>
                </g>
                <g transform="matrix(3.60533,0,0,2.02802,-14.5403,-8.1871)">
                    <path d="M150.112,208.305C150.112,220.241 140.288,230.066 128.351,230.066C116.414,230.066 106.59,220.241 106.59,208.305C106.59,196.368 116.414,186.543 128.351,186.543C140.288,186.543 150.112,196.368 150.112,208.305Z" style="fill:rgb(177,177,177);fill-rule:nonzero;"/>
                </g>
                <g transform="matrix(3.60533,0,0,2.02802,-14.5403,-8.1871)">
                    <path d="M147.828,208.294C147.828,218.979 139.034,227.773 128.349,227.773C117.663,227.773 108.869,218.979 108.869,208.294C108.869,197.609 117.663,188.815 128.349,188.815C139.034,188.815 147.828,197.609 147.828,208.294Z" style="fill:rgb(255,240,136);fill-rule:nonzero;"/>
                </g>
                <g transform="matrix(3.60533,0,0,2.02802,-14.5403,-8.1871)">
                    <path d="M106.589,204.935L106.589,217.522C106.589,222.252 108.474,226.795 111.821,230.143C115.163,233.49 119.706,235.369 124.437,235.369L132.27,235.369C137.001,235.369 141.538,233.49 144.885,230.143C148.233,226.795 150.111,222.252 150.111,217.522L150.111,204.935L151.637,204.935L151.637,218.677C151.637,228.537 143.65,236.524 133.796,236.524L123.173,236.524C113.318,236.524 105.326,228.537 105.326,218.677L105.326,204.935L106.589,204.935Z" style="fill:rgb(143,143,143);fill-rule:nonzero;"/>
                </g>
                <g transform="matrix(3.60533,0,0,2.02802,-14.5403,-8.1871)">
                    <path d="M255.253,261.304C255.253,264.879 252.31,267.822 248.735,267.822C245.159,267.822 242.216,264.879 242.216,261.304C242.216,257.729 245.159,254.786 248.735,254.786C252.31,254.786 255.253,257.729 255.253,261.304ZM278.023,261.304C278.023,264.879 275.08,267.822 271.505,267.822C267.929,267.822 264.986,264.879 264.986,261.304C264.986,257.729 267.929,254.786 271.505,254.786C275.08,254.786 278.023,257.729 278.023,261.304ZM300.783,261.304C300.783,264.879 297.84,267.822 294.265,267.822C290.689,267.822 287.746,264.879 287.746,261.304C287.746,257.729 290.689,254.786 294.265,254.786C297.84,254.786 300.783,257.729 300.783,261.304ZM323.563,261.304C323.563,264.879 320.62,267.822 317.045,267.822C313.469,267.822 310.526,264.879 310.526,261.304C310.526,257.729 313.469,254.786 317.045,254.786C320.62,254.786 323.563,257.729 323.563,261.304ZM346.333,261.304C346.333,264.879 343.39,267.822 339.815,267.822C336.239,267.822 333.296,264.879 333.296,261.304C333.296,257.729 336.239,254.786 339.815,254.786C343.39,254.786 346.333,257.729 346.333,261.304ZM369.103,261.304C369.103,264.879 366.16,267.822 362.585,267.822C359.009,267.822 356.066,264.879 356.066,261.304C356.066,257.729 359.009,254.786 362.585,254.786C366.16,254.786 369.103,257.729 369.103,261.304ZM391.873,261.304C391.873,264.879 388.93,267.822 385.355,267.822C381.779,267.822 378.836,264.879 378.836,261.304C378.836,257.729 381.779,254.786 385.355,254.786C388.93,254.786 391.873,257.729 391.873,261.304Z" style="fill:rgb(171,171,171);fill-rule:nonzero;"/>
                </g>
                <g transform="matrix(3.60533,0,0,2.02802,-14.5403,-8.1871)">
                    <path d="M144.151,290.373C148.38,290.373 151.813,293.806 151.813,298.036C151.813,302.265 148.38,305.698 144.151,305.698C139.921,305.698 136.489,302.265 136.489,298.036C136.489,293.806 139.921,290.373 144.151,290.373ZM144.151,294.204C142.036,294.204 140.32,295.921 140.32,298.036C140.32,300.15 142.036,301.867 144.151,301.867C146.266,301.867 147.982,300.15 147.982,298.036C147.982,295.921 146.266,294.204 144.151,294.204Z" style="fill:rgb(82,82,82);fill-rule:nonzero;"/>
                </g>
                <g transform="matrix(3.60533,0,0,2.02802,-14.5403,-8.1871)">
                    <rect x="140.32" y="303.566" width="7.662" height="31.838" style="fill:rgb(82,82,82);fill-rule:nonzero;"/>
                </g>
                <g transform="matrix(3.60533,0,0,2.02802,-14.5403,-8.1871)">
                    <path d="M123.079,316.252C123.079,327.89 132.512,337.323 144.15,337.323C155.787,337.323 165.221,327.89 165.221,316.252L159.531,316.252C159.531,324.747 152.645,331.634 144.15,331.634C135.655,331.634 128.768,324.747 128.768,316.252L123.079,316.252Z" style="fill:rgb(82,82,82);fill-rule:nonzero;"/>
                </g>
                <g transform="matrix(3.60533,0,0,2.02802,-14.5403,-8.1871)">
                    <path d="M125.956,310.367L131.254,320.086L120.657,320.086L125.956,310.367ZM162.416,310.367L167.714,320.086L157.117,320.086L162.416,310.367Z" style="fill:rgb(82,82,82);fill-rule:nonzero;"/>
                </g>
                <g transform="matrix(3.60533,0,0,2.02802,-14.5403,-8.1871)">
                    <path d="M432.098,227.403C432.098,223.487 428.924,220.31 425.005,220.31L190.304,220.31C186.395,220.31 183.221,223.487 183.221,227.403C183.221,231.314 186.395,234.491 190.304,234.491L425.005,234.491C428.924,234.491 432.098,231.314 432.098,227.403Z" style="fill:rgb(173,173,173);fill-rule:nonzero;"/>
                </g>
                <g transform="matrix(3.60533,0,0,2.02802,-14.5403,-8.1871)">
                    <path d="M320.763,170.411C321.043,169.418 320.842,168.351 320.219,167.528C319.597,166.705 318.624,166.222 317.592,166.222L277.401,166.222C275.927,166.222 274.631,167.202 274.23,168.621L256.008,233.174L303.046,233.174L320.763,170.411Z" style="fill:rgb(76,76,76);fill-rule:nonzero;"/>
                </g>
                <g transform="matrix(3.60533,0,0,2.02802,-14.5403,-8.1871)">
                    <path d="M320.763,170.411C321.043,169.418 320.842,168.351 320.219,167.528C319.597,166.705 318.624,166.222 317.592,166.222L277.401,166.222C275.927,166.222 274.631,167.202 274.23,168.621L256.008,233.174L303.046,233.174L320.763,170.411Z" style="fill-rule:nonzero;"/>
                    <clipPath id="_clip2">
                        <path d="M320.763,170.411C321.043,169.418 320.842,168.351 320.219,167.528C319.597,166.705 318.624,166.222 317.592,166.222L277.401,166.222C275.927,166.222 274.631,167.202 274.23,168.621L256.008,233.174L303.046,233.174L320.763,170.411Z" clip-rule="nonzero"/>
                    </clipPath>
                    <g clip-path="url(#_clip2)">
                        <rect x="260.812" y="175.711" width="67.81" height="9.789" style="fill:rgb(145,0,0);fill-rule:nonzero;"/>
                    </g>
                </g>
                <g transform="matrix(3.60533,0,0,2.02802,-14.5403,-8.1871)">
                    <path d="M385.633,170.411C385.913,169.418 385.712,168.351 385.089,167.528C384.467,166.705 383.494,166.222 382.462,166.222L342.271,166.222C340.797,166.222 339.501,167.202 339.101,168.621L320.878,233.174L367.916,233.174L385.633,170.411Z" style="fill:rgb(76,76,76);fill-rule:nonzero;"/>
                </g>
                <g transform="matrix(3.60533,0,0,2.02802,-14.5403,-8.1871)">
                    <path d="M385.633,170.411C385.913,169.418 385.712,168.351 385.089,167.528C384.467,166.705 383.494,166.222 382.462,166.222L342.271,166.222C340.797,166.222 339.501,167.202 339.101,168.621L320.878,233.174L367.916,233.174L385.633,170.411Z" style="fill-rule:nonzero;"/>
                    <clipPath id="_clip3">
                        <path d="M385.633,170.411C385.913,169.418 385.712,168.351 385.089,167.528C384.467,166.705 383.494,166.222 382.462,166.222L342.271,166.222C340.797,166.222 339.501,167.202 339.101,168.621L320.878,233.174L367.916,233.174L385.633,170.411Z" clip-rule="nonzero"/>
                    </clipPath>
                    <g clip-path="url(#_clip3)">
                        <rect x="325.683" y="175.711" width="67.81" height="9.789" style="fill:rgb(145,0,0);fill-rule:nonzero;"/>
                    </g>
                </g>
                <g transform="matrix(3.77977,0,0,2.12614,-729.899,-36.2147)">
                    <path d="M-288.003,364.535C-288.003,384.801 -253.238,401.224 -211.3,401.224C-169.363,401.224 -134.598,384.801 -134.598,364.535L-134.596,364.773C-134.326,384.929 -99.67,401.224 -57.895,401.224C-19.01,401.224 13.709,387.104 18.265,368.894L18.265,364.535C18.265,365.575 18.357,366.605 18.536,367.623C18.716,366.605 18.807,365.575 18.807,364.535C18.807,384.757 53.422,401.154 95.239,401.224C137.055,401.154 171.67,384.757 171.67,364.535L171.672,364.773C171.685,365.732 171.775,366.682 171.941,367.623C172.121,366.605 172.212,365.575 172.212,364.535L172.214,364.773C172.483,384.885 206.991,401.154 248.644,401.224C290.46,401.154 325.075,384.757 325.075,364.535C325.075,365.575 325.167,366.605 325.346,367.623C325.526,366.605 325.617,365.575 325.617,364.535C325.617,384.757 360.232,401.154 402.049,401.224C443.865,401.154 478.48,384.757 478.48,364.535L478.482,364.773C478.495,365.732 478.585,366.682 478.751,367.623C478.931,366.605 479.022,365.575 479.022,364.535C479.022,384.757 513.637,401.154 555.454,401.224C597.27,401.154 631.885,384.757 631.885,364.535C631.885,365.575 631.977,366.605 632.156,367.623C632.336,366.605 632.427,365.575 632.427,364.535L632.429,364.773C632.698,384.885 667.206,401.154 708.859,401.224C750.675,401.154 785.29,384.757 785.29,364.535C785.29,365.575 785.382,366.605 785.561,367.623C785.741,366.605 785.832,365.575 785.832,364.535L785.832,368.894C790.388,387.104 823.107,401.224 861.993,401.224C903.931,401.224 938.696,384.801 938.696,364.535L938.697,364.773C938.967,384.929 973.623,401.224 1015.4,401.224C1057.33,401.224 1092.1,384.801 1092.1,364.535L1092.1,473.837L-288.003,473.837L-288.003,364.535Z" style="fill:rgb(53,141,160);fill-rule:nonzero;"/>
                </g>
                <g transform="matrix(3.77977,0,0,2.12614,-729.899,-36.2147)">
                    <path d="M-360.005,382.54C-360.005,402.805 -325.24,419.229 -283.302,419.229C-241.364,419.229 -206.6,402.805 -206.6,382.54L-206.598,382.778C-206.328,402.933 -171.671,419.229 -129.897,419.229C-87.959,419.229 -53.195,402.805 -53.195,382.54C-53.195,402.805 -18.43,419.229 23.508,419.229C65.445,419.229 100.21,402.806 100.211,382.54L100.212,382.778C100.482,402.933 135.138,419.229 176.913,419.229C218.851,419.229 253.616,402.805 253.616,382.54C253.616,402.805 288.38,419.229 330.318,419.229C372.256,419.229 407.02,402.806 407.021,382.54C407.021,402.805 441.785,419.229 483.723,419.229C525.662,419.229 560.426,402.805 560.426,382.54L560.427,382.778C560.436,383.443 560.483,384.105 560.566,384.762C560.606,385.076 560.654,385.388 560.71,385.7C560.843,386.44 561.023,387.174 561.248,387.9C561.318,388.128 561.393,388.356 561.473,388.583C561.711,389.263 561.989,389.937 562.305,390.605C562.375,390.753 562.447,390.901 562.521,391.048C564.32,394.636 567.228,398.019 571.058,401.112C571.228,401.25 571.4,401.386 571.574,401.523L571.629,401.566L571.762,401.669C573.319,402.877 575.017,404.039 576.847,405.15L576.916,405.193L577.203,405.365C578.028,405.859 578.879,406.341 579.754,406.813C580.476,407.203 581.216,407.585 581.972,407.96L582.079,408.013L582.401,408.171L582.563,408.25C582.941,408.433 583.322,408.614 583.707,408.794L584.039,408.947C584.408,409.117 584.78,409.285 585.156,409.451C585.457,409.584 585.761,409.716 586.066,409.847L586.41,409.993C587.613,410.502 588.85,410.994 590.118,411.466C590.307,411.537 590.498,411.608 590.689,411.678L591.049,411.809L591.295,411.897C591.755,412.062 592.22,412.225 592.687,412.385C594.74,413.087 596.867,413.743 599.061,414.348C600.058,414.623 601.069,414.887 602.093,415.14L602.396,415.216L602.862,415.328C604.917,415.824 607.025,416.277 609.178,416.685C609.793,416.801 610.412,416.914 611.035,417.022L611.806,417.155L612.612,417.289C616.485,417.92 620.491,418.406 624.601,418.734C625.857,418.834 627.123,418.92 628.398,418.99C631.266,419.148 634.179,419.229 637.128,419.229C640.077,419.229 642.99,419.148 645.859,418.99C647.124,418.92 648.382,418.836 649.629,418.736C653.721,418.411 657.709,417.928 661.565,417.302L662.451,417.155C664.217,416.857 665.955,416.528 667.661,416.17C668.799,415.931 669.923,415.68 671.032,415.416L671.861,415.216C673.01,414.934 674.144,414.639 675.26,414.33L675.919,414.146C678.323,413.466 680.645,412.725 682.875,411.928L683.207,411.809L683.575,411.675L683.94,411.54L684.304,411.405L684.666,411.268L684.769,411.229C684.975,411.15 685.181,411.071 685.385,410.992C686.474,410.568 687.538,410.131 688.576,409.68C689.153,409.43 689.723,409.175 690.284,408.916C691.464,408.372 692.608,407.811 693.715,407.232C693.936,407.116 694.156,407 694.374,406.883C695.329,406.37 696.255,405.845 697.151,405.307C697.598,405.038 698.033,404.767 698.473,404.493L698.743,404.316L699.023,404.138C699.263,403.98 699.503,403.82 699.743,403.659C699.863,403.579 699.973,403.499 700.093,403.419L700.363,403.237C700.793,402.933 701.223,402.626 701.643,402.316C702.683,401.547 703.663,400.758 704.573,399.951C709.653,395.487 712.853,390.466 713.643,385.13L713.673,384.897L713.683,384.852C713.783,384.088 713.833,383.317 713.833,382.54C713.833,402.806 748.593,419.229 790.533,419.229C832.473,419.229 867.233,402.805 867.233,382.54C867.233,402.805 902.003,419.229 943.933,419.229C985.873,419.229 1020.64,402.805 1020.64,382.54L1020.64,382.778C1020.91,402.933 1055.57,419.229 1097.34,419.229C1139.28,419.229 1174.04,402.805 1174.04,382.54L1174.04,1768L-360.005,1768L-360.005,382.54Z" style="fill:rgb(58,162,184);fill-rule:nonzero;"/>
                </g>
            </g>
        </g>
    </g>
</svg>
