<?xml version="1.0" ?>
<svg xmlns="http://www.w3.org/2000/svg" width="1080" height="1920" viewBox="0 0 1080 1920">
  <g>
    <path d="M 0 0 L 1080 0 L 1080 1920 L 0 1920 Z" fill="#795941" stroke-width="1"/>
  </g>
  <g>
    <path d="M 0 0 L 1080 0 L 1080 1920 L 0 1920 Z" fill="#000" stroke-width="1"/>
  </g>
  <g/>
  <g>
    <path d="M 115.92 1608.027 C 115.92 1608.027 42.882 1510.289 24.064 1485.113 C 21.28 1481.39 20.242 1476.644 21.203 1472.105 C 46.098 1354.573 369.33 -171.309 369.33 -171.309 L 470.623 -149.989 L 115.92 1608.027 Z" fill="#000" stroke-width="1"/>
    <path d="M 1240.77 24.361 L 483.632 -134.998 C 483.632 -134.998 125.053 1496.487 105.855 1583.888 C 105.343 1586.236 105.664 1588.691 106.764 1590.835 C 108.739 1594.669 112.009 1600.987 114.203 1605.22 C 115.62 1607.974 118.202 1609.941 121.241 1610.581 L 863.474 1766.802 C 869.057 1767.977 874.533 1764.409 875.706 1758.837 L 1240.77 24.361 Z" fill="#634732" stroke-width="1"/>
    <path d="M 1227.77 9.361 L 470.632 -149.998 L 105.568 1584.478 C 104.395 1590.051 107.968 1595.523 113.551 1596.699 L 850.474 1751.802 C 856.057 1752.977 861.533 1749.409 862.706 1743.837 L 1227.77 9.361 Z" fill="#987052" stroke-width="1"/>
    <path d="M 619.558 1244.763 C 576.699 1235.742 532.439 1240.602 493.156 1258.641 C 453.874 1276.681 421.553 1306.99 400.851 1345.2 C 380.15 1383.41 372.114 1427.592 377.902 1471.377 C 383.689 1515.162 403.008 1556.34 433.073 1588.976 C 463.138 1621.612 502.432 1644.057 545.291 1653.077 C 588.151 1662.1 632.412 1657.241 671.695 1639.202 C 710.978 1621.162 743.3 1590.853 764.002 1552.642 C 784.704 1514.432 792.74 1470.249 786.952 1426.464 C 781.165 1382.678 761.845 1341.499 731.779 1308.864 C 701.713 1276.228 662.418 1253.783 619.558 1244.763 Z" fill="#4c4c4c" stroke-width="1"/>
    <path d="M 813.76 -77.771 L 900.322 -59.552 L 643.003 1355.164 L 556.441 1336.945 Z" fill="#4c4c4c" stroke-width="1"/>
    <path d="M 805.916 -79.371 L 892.478 -61.152 L 635.159 1353.564 L 548.597 1335.345 Z" fill="#b7b7b7" stroke-width="1"/>
    <path d="M 788.299 297.997 C 756.395 291.176 723.415 294.712 694.13 308.092 C 664.845 321.471 640.74 344.017 625.303 372.467 C 609.866 400.916 603.88 433.827 608.211 466.437 C 612.542 499.047 626.97 529.703 649.408 553.969 C 671.845 578.235 701.155 594.881 733.096 601.498 C 765 608.319 797.98 604.783 827.265 591.403 C 856.55 578.024 880.655 555.478 896.092 527.028 C 911.528 498.579 917.514 465.668 913.184 433.058 C 908.853 400.448 894.425 369.792 871.987 345.526 C 849.549 321.26 820.24 304.614 788.299 297.997 Z" fill="#6a6a6a" stroke-width="1"/>
    <path d="M 783.679 289.877 C 751.775 283.056 718.795 286.592 689.51 299.972 C 660.225 313.351 636.12 335.897 620.683 364.347 C 605.246 392.796 599.26 425.707 603.591 458.317 C 607.922 490.927 622.35 521.583 644.788 545.849 C 667.225 570.115 696.535 586.761 728.476 593.378 C 760.38 600.199 793.36 596.663 822.645 583.283 C 851.93 569.904 876.035 547.358 891.472 518.908 C 906.908 490.459 912.894 457.548 908.564 424.938 C 904.233 392.328 889.805 361.672 867.367 337.406 C 844.929 313.14 815.62 296.494 783.679 289.877 Z" fill="#adadad" stroke-width="1"/>
    <path d="M 610.768 1232.833 C 567.909 1223.812 523.649 1228.672 484.366 1246.711 C 445.084 1264.751 412.763 1295.06 392.061 1333.27 C 371.36 1371.48 363.324 1415.662 369.112 1459.447 C 374.899 1503.232 394.218 1544.41 424.283 1577.046 C 454.348 1609.682 493.642 1632.127 536.501 1641.147 C 579.361 1650.17 623.622 1645.311 662.905 1627.272 C 702.188 1609.232 734.51 1578.923 755.212 1540.712 C 775.914 1502.502 783.95 1458.319 778.162 1414.534 C 772.375 1370.748 753.055 1329.569 722.989 1296.934 C 692.923 1264.298 653.628 1241.853 610.768 1232.833 Z" fill="#b7b7b7" stroke-width="1"/>
    <path d="M 592.45 1333.568 C 570.705 1328.919 548.227 1331.329 528.268 1340.448 C 508.308 1349.567 491.879 1364.934 481.358 1384.324 C 470.837 1403.714 466.757 1426.144 469.709 1448.37 C 472.66 1470.596 482.494 1491.49 497.787 1508.029 C 513.079 1524.568 533.056 1535.913 554.825 1540.423 C 576.57 1545.072 599.048 1542.662 619.008 1533.543 C 638.967 1524.424 655.396 1509.057 665.917 1489.667 C 676.439 1470.277 680.518 1447.846 677.567 1425.621 C 674.615 1403.395 664.781 1382.501 649.489 1365.962 C 634.196 1349.423 614.219 1338.078 592.45 1333.568 Z" fill="#c4c4c4" stroke-width="1"/>
    <path d="M 770.055 364.754 C 753.892 361.298 737.184 363.089 722.348 369.868 C 707.512 376.646 695.3 388.068 687.479 402.481 C 679.659 416.893 676.626 433.566 678.82 450.087 C 681.015 466.607 688.324 482.138 699.691 494.431 C 711.058 506.725 725.907 515.158 742.088 518.51 C 758.251 521.965 774.959 520.174 789.795 513.396 C 804.631 506.618 816.843 495.196 824.663 480.783 C 832.484 466.37 835.516 449.697 833.322 433.177 C 831.128 416.657 823.819 401.126 812.452 388.832 C 801.085 376.539 786.236 368.106 770.055 364.754 Z" fill="#7b7b7b" stroke-width="1"/>
    <path d="M 767.852 376.853 C 754.235 373.942 740.158 375.451 727.659 381.162 C 715.16 386.873 704.871 396.496 698.283 408.638 C 691.694 420.781 689.139 434.828 690.987 448.746 C 692.836 462.665 698.994 475.749 708.571 486.106 C 718.148 496.464 730.657 503.568 744.29 506.393 C 757.907 509.304 771.984 507.795 784.483 502.084 C 796.983 496.374 807.271 486.751 813.86 474.608 C 820.448 462.465 823.003 448.418 821.155 434.5 C 819.306 420.582 813.148 407.497 803.571 397.14 C 793.995 386.783 781.485 379.678 767.852 376.853 Z" fill="#838383" stroke-width="1"/>
  </g>
  <g/>
  <g/>
  <g/>
</svg>
